/* XPM */
static char *result[] = {
/* columns rows colors chars-per-pixel */
"42 42 6 1 ",
"  c #39231B",
". c #492D24",
"X c #613C2F",
"o c #683F33",
"O c #734136",
"+ c #734636",
/* pixels */
"                                          ",
"......................................... ",
"................XXXXXXXX.X.X.X..X.X...... ",
".X.XXXXXXXXXXXXXXXXXXOXXXXX.X...XX....... ",
"XXXXXXXXXXXXXXXXXXOXOXXOXXXXX..XXXX.X.X.. ",
"XOXOOXOOXOXOXOXOOOOOOOOOOXOXXXX.XOXX.X.X. ",
"OXOOOOOOOOOOOOOOOOOOOOOOOOXOXOXXOXOXX.... ",
"OOOOOOOOOOOOOOOOOOOOOOOOOOOOOOOOOOXX..... ",
"OOOOOOOOOOOOOOOOOOOOO+OOOOOOOOOOOOXX..... ",
"OOOOOOOOOOOOOOOOOOOOO+OOOOOOOOOOOOXXX..X. ",
"OOOOOOOOOOOOOOOOOOOOOOOOOOOOOOOOOOXXX.X.. ",
"OOOOOOOOOOOOOOOOOOOOOOOOOOOOOOOOOOOXOXX.. ",
"OOOOOOOOOOOOOOOOOOOOOOOOOOOOOOOOOOOOXXXX. ",
"OOOOOOOOOOOOOOOOOOOOOOOOOOOOOOOOOOOOOXX.. ",
"OOOOOOOOOOOOOOOOOOOOOOOOOOOOOOOOOOOOXXX.. ",
"OOOOOOOOOOOOOOOOOOOOOOOOOOOOOOOOOOOOOXX.. ",
"OOOOOOOOOOOOOOOOOOOOOOOOOOOOOOOOOOOOXXX.. ",
"OOOOOOOOOOOOOOOOOOOOOOOOOOOOOOOOOOOOOXX.. ",
"OOOOOOOOOOOOOOOOOOOOOOOOOOOOOOOOOOOOXXX.. ",
"OOOOOOOOOOOOOOOOOOOOOOOOOOOOOOOOOOOOOXX.. ",
"OOOOOOOOOOOOOOOOOOOOOOOOOOOOOOOOOOOOXXX.. ",
"OOOOOOOOOOOOOOOOOOOOOOOOOOOOOOOOOOOOOXX.. ",
"OOOOOOOOOOOOOOOOOOOOOoOOOOOOOOOOOOOOOXX.. ",
"OOOOOOOOOOOOOOOOOOOOOOOOOOOOOOOOOOOOOXX.. ",
"OOOOOOOOOOOOOOOOOOOOOOOOOOOOOOOOOOOOOXX.. ",
"OOOOOOOOOOOOOOOOOOOOOOOOOOOOOOOOOOOOOXX.. ",
"OOOOOOOOOOOOOOOOOOOOOOOOOOOOOOOOOOOOOXX.. ",
"OOOOOOOOOOOOOOOOOOOOOOOOOOOOOOOOOOOOOXX.. ",
"OOOOOOOOOOOOOOOOOOOOOOOOOOOOOOOOOOOOOXX.. ",
"OOOOOOOOOOOOOOOOOOOOOOOOOOOOOOOOOOOOOXX.. ",
"OOOOOOOOOOOOOOOOOOOOOOOOOOOOOOOOOOOOOXX.. ",
"OOOOOOOOOOOOOOOOOOOOOOOOOOOOOOoOOOOOXXX.. ",
"OOOOOOOOOOOOOOOOOOOOOOOOOOOOOooOOOOOXX... ",
"OOOOOOOOOOOOOOOOOOOOOOOOOOOOOoOOOOOOXXX.. ",
"OOOOOOOOOOOOOOOOOOOOOOOOOOOOOoOOOOOOXX... ",
"OOOOOOOOOOOOOOOOOOOOOOOOOOOOOooOOOOOOXX.. ",
"OOOOOOOOOOOOOOOOOOOOO+OOOOOOOoOOOOOOXX... ",
"OOOOOOOOOOOOOOOOOOOOO+OOOOOOOoOOOOOOOXX.. ",
"OOOOOOOOOOOOOOOOOOOOOOOOOOOOOoOOOOOOOX... ",
"OOOOOOOOOOOOOOOOOOOOOOOOOOOOOOOOOOOOOXX.. ",
"OOOOOOOOOOOOOOOOOOOOOOOOOOOOOOOOOOOOOX... ",
"OOOOOOOOOOOOOOOOOOOOOOOOOOOOOoOOOOOOOXX.. "
};
