/* XPM */
static char *result[] = {
/* columns rows colors chars-per-pixel */
"42 42 6 1 ",
"  c #39231B",
". c #492D24",
"X c #613C2F",
"o c #683F33",
"O c #734136",
"+ c #734636",
/* pixels */
"OOOOOOOOOOOOOOOOOOOOOOOOOOOOOOOOOOOOXX... ",
"OOOOOOOOOOOOOOOOOOOOOOOOOOOOOOOOOOOXOXX.. ",
"OOOOOOOOOOOOOOOOOOOOOOOOOOOOOOOOOOOOXX... ",
"OOOOOOOOOOOOOOOOOOOOOOOOOOOOOOOOOOOOOXX.. ",
"OOOOOOOOOOOOOOOOOOOOOOOOOOOOOOOOOOOOOXX.. ",
"OOOOOOOOOOOOOOOOOOOOOOOOOOOOOOOOOOOOXXX.. ",
"OOOOOOOOOOOOOOOOOOOOOOOOOOOOOOOOOOOOOXX.. ",
"OOOOOOOOOOOOOOOOOOOOOOOOOOOOOOOOOOOOOXX.. ",
"OOOOOOOOOOOOOOOOOOOOOOOOOOOOOOOOOOOOXXX.. ",
"OOOOOOOOOOOOOOOOOOOOOOOOOOOOOOOOOOOOOXX.. ",
"OOOOOOOOOOOOOOOOOOOOOOOOOOOOOOOOOOOOXXX.. ",
"OOOOOOOOOOOOOOOOOOOOOOOOOOOOOOOOOOOOOXX.. ",
"OOOOOOOOOOOOOOOOOOOOOOOOOOOOOOOOOOOOXXX.. ",
"OOOOOOOOOOOOOOOOOOOOOOOOOOOOOOOOOOOOOXX.. ",
"OOOOOOOOOOOOOOOOOOOOOOOOOOOOOOOOOOOOXXX.. ",
"OOOOOOOOOOOOOOOOOOOOOOOOOOOOOOOOOOOOOXX.. ",
"OOOOOOOOOOOOOOOOOOOOOOOOOOOOOOOOOOOOOXXX. ",
"OOOOOOOOOOOOOOOOOOOOOOOOOOOOOOOOOOOOOXXX. ",
"OOOOOOOOOOOOOOOOOOOOOOOOOOOOOOOOOOOOOOXX. ",
"OOOOOOOOOOOOOOOOOOOOOOOOOOOOOOOOOOOOOXXX. ",
"OOOOOOOOOOOOOOOOOOOOOOOOOOOOOOOOOOOOOOXX. ",
"OOOO++OOOOOOOOOOOOOoOOOOOOOOOOOO++OOOXOX. ",
"OOOOOOOOOOOOOOOOOOOOOOOOOOOOOOOOOOOOOXXX. ",
"OOOOOOOOOOOOOOOOOOOOOOOOOOOOOOOOOOOOOOXX. ",
"OOOOOOOOOOOOOOOOOOOOOOOOOOOOOOOOOOOOOXX.. ",
"OOOOOOOOOOOOOOOOOOOOOOOOOOOOOOOOOOOOXXXX. ",
"OOOOOOOOOOOOOOOOOOOOOOOOOOOOOOOOOOOXOXX.. ",
"OOOOOOOOOOOOOOOOOOOOOOOOOOOOOOOOOOOOXX.X. ",
"OOOOOOOOOOOOOOOOOOOOOOOOOOOOOOOOOOOXXXX.. ",
"oOOoooooooOOOOOOOOOOOOOOOOOOOOOOOOOOX..X. ",
"OOOOOOoOOooOOOOOOOOOOOOOOOOOOOOOOOOXX.... ",
"OOOOOOOOOOOOOOOOOOOOOOOOOOOOOOOOOOOX.X... ",
"OOOOOOOOOOOOOOOOOOOOOOOOOOOOOOOOOOOOXXXX. ",
"OOOOOOOOOOOOOOOOOOOOOOOOOOOOOOOOOOOXOXX.. ",
"OOOOOOOOOOOOOOOOOOOOOOOOOOOOOOOXXXXOXX.X. ",
"OOOOOOOOOOOOOOOOOOOOOOOOOOOOOOXXXXXXX.... ",
"OOOOOXOXXXXOOOOOOOOOOXOXOXOXOXOXX..X.X... ",
"XXXXXXXXXXXXXXXXXXXXXXXXXXXXXXX.....X.... ",
"X.X.X.X.X.XXXXXXXXXXXXXXXXXXXXXX.....X... ",
".............................X..X...X.... ",
"......................................... ",
"                                          "
};
