/* XPM */
static char *result[] = {
/* columns rows colors chars-per-pixel */
"42 42 11 1 ",
"  c #060000",
". c #080000",
"X c #520000",
"o c #830000",
"O c #B30000",
"+ c #B97371",
"@ c #A7A7A7",
"# c #CF9C9B",
"$ c #E3C6C5",
"% c white",
"& c None",
/* pixels */
"&&&&&&&&&&&&&&&&&&&&&&&&&&&&&&&&&&&&&&&&&&",
"&&&&&&&&&&&&&&&&&&&&&&&&&&&&&&&&&&&&&&&&&&",
"&&&&&&&&&&&&&&&&&&&&&&&&&&&&&&&&&&&&&&&&&&",
"&&&&&&&&&&&&&&&&          &&&&&&&&&&&&&&&&",
"&&&&&&&&&&&&&&              &&&&&&&&&&&&&&",
"&&&&&&&&&&&&     ########     &&&&&&&&&&&&",
"&&&&&&&&&&&    #$$$$$$$$$$#    &&&&&&&&&&&",
"&&&&&&&&&&   #$$$$$$$$$$$$$$#   &&&&&&&&&&",
"&&&&&&&&&   #$$$$$$$$$$$$$$$$#   &&&&&&&&&",
"&&&&&&&&&  #$$$$$$$$$$$$$$$$$$#  &&&&&&&&&",
"&&&&&&&&   $$$$$$$$$$$$$$$$$$$$   &&&&&&&&",
"&&&&&&&&  #$$$$$$$$$$$$$$$$$$$$#  &&&&&&&&",
"&&&&&&&   $$$$$$$$$$$$$$$$$$$$$$   &&&&&&&",
"&&&&&&&  #$$$$$$$$$$$$$$$$OOOO$$#  &&&&&&&",
"&&&&&&&  #$O    O$$$$$$OOO    O$#  &&&&&&&",
"&&&&&&&  #O XXXX #$$$$$OO XXXX O#  &&&&&&&",
"&&&&&&&  #o XXXX #$#   #O XXXX o#  &&&&&&&",
"&&&&&&&  +o XXXX ##     $ XXXX o+  &&&&&&&",
"&&&&&&&   O XXXX $      # XXXX O   &&&&&&&",
"&&&&&&&&  o#    o#      #o    O+  &&&&&&&&",
"&&&&&&&&   #ooooO       #OOoooO   &&&&&&&&",
"&&&&&&&&&  +OOOO#    @% #O#OOO+  &&&&&&&&&",
"&&&&&&&&&   oO#O# @%    $##OOo   &&&&&&&&&",
"&&&&&&&&&&   oOO##   ###$#OOo   &&&&&&&&&&",
"&&&&&&&&&&&    o#$$$$$$$$#o    &&&&&&&&&&&",
"&&&&&&&&&&&&     +######+     &&&&&&&&&&&&",
"&&&&&&&&&&&&&&              &&&&&&&&&&&&&&",
"&&&&&&&&&&&&&&&.          .&&&&&&&&&&&&&&&",
"&&&&&&&&&&&&&&..+ooo#####+..&&&&&&&&&&&&&&",
"&&&&&&&&&&&&&&..#ooO###$$##..&&&&&&&&&&&&&",
"&&&&&&&&&&&&&&..#oOO###$$$#..&&&&&&&&&&&&&",
"&&&&&&&&&&&&&&..#o#O$$#.$$#..&&&&&&&&&&&&&",
"&&&&&&&&&&&&&&..###o$$$#.$...&&&&&&&&&&&&&",
"&&&&&&&&&&&&&&...+.$o$$#....&&&&&&&&&&&&&&",
"&&&&&&&&&&&&&&&...+.$$#+...&&&&&&&&&&&&&&&",
"&&&&&&&&&&&&&&&&..++.#+...&&&&&&&&&&&&&&&&",
"&&&&&&&&&&&&&&&&&.........&&&&&&&&&&&&&&&&",
"&&&&&&&&&&&&&&&&&&.......&&&&&&&&&&&&&&&&&",
"&&&&&&&&&&&&&&&&&&&&&&&&&&&&&&&&&&&&&&&&&&",
"&&&&&&&&&&&&&&&&&&&&&&&&&&&&&&&&&&&&&&&&&&",
"&&&&&&&&&&&&&&&&&&&&&&&&&&&&&&&&&&&&&&&&&&",
"&&&&&&&&&&&&&&&&&&&&&&&&&&&&&&&&&&&&&&&&&&"
};
