/* XPM */
static char *result[] = {
/* columns rows colors chars-per-pixel */
"42 42 11 1 ",
"  c #00000D",
". c #1E0F15",
"X c #3F1700",
"o c #351518",
"O c #002631",
"+ c #353F3F",
"@ c #532F2D",
"# c #70443A",
"$ c #544E4E",
"% c #817B7B",
"& c None",
/* pixels */
"&&&&&&&&&&&&&&&&&&&&&&&&&&&&&&&&&&&&&&&&&&",
"&&&&&&&&&&&&&&&&&&&&&&&&&&&&&&&&&&&&&&&&&&",
"&&&&&&&&&&&&&&&&&&&&&&&&&&&&&&&&&&&&&&&&&&",
"&&&&&&&&&&&&&&&&&&&&&&&&&&&&&&&&&&&&&&&&&&",
"&&&&&&&&&&&&&&&&&&&&&&&&&&&&&&&&&&&&&&&&&&",
"&&&&&XOOXOOOOOOOOOOOOOOOOOOOOOOOOXOOX&&&&&",
"&&&&&O$$O$%$%O$%$%%$$+$$$++O$+%%OO$$O&&&&&",
"&&&&&O++O$$+$O+$$++++++++++O++$$OO++O&&&&&",
"&&&&&&OOO++++OOOOOOOOOOOOOOO++++OOOO&&&&&&",
"&&&&&&O+$OOOO@@##@@@@#@@@o@oOOOOO+$O&&&&&&",
"&&&&&&O$+O@#############@@#####@O+$O&&&&&&",
"&&&&&&O$+O#############@########O+$O&&&&&&",
"&&&&&&O%$Oooooo@oo@@ooooooo@ooooO++O&&&&&&",
"&&&&&&O%$O@@o@@@@o@@@@o@@@@o@@@@O+$O&&&&&&",
"&&&&&&O$+O@@@o@@@o@@@@o@@@o@@@@@O+$O&&&&&&",
"&&&&&&O%$O oo.oooo.ooo.ooo.oooo O+$O&&&&&&",
"&&&&&&O$+O  oo.ooo.ooo.oo.oooo  O+$O&&&&&&",
"&&&&&&O$+O   .. .. .. .. ...    O++O&&&&&&",
"&&&&&&O++O    .. . .. . ..      O++O&&&&&&",
"&&&&&&O++O                      O+$O&&&&&&",
"&&&&&&O$+O                      O+$O&&&&&&",
"&&&&&&O$+O                      O+$O&&&&&&",
"&&&&&&O$+O                      O+$O&&&&&&",
"&&&&&&O$+O                      O+$O&&&&&&",
"&&&&&&O$+O                      O+$O&&&&&&",
"&&&&&&O+$O                      O+$O&&&&&&",
"&&&&&&O+$O                      O++O&&&&&&",
"&&&&&&O$+O                      O+$O&&&&&&",
"&&&&&&O+OO                      O+$O&&&&&&",
"&&&&&&O+OO                      O+$O&&&&&&",
"&&&&&&O$+O                      O++O&&&&&&",
"&&&&&&O$+O                      O++O&&&&&&",
"&&&&&&O+OO                      O++O&&&&&&",
"&&&&&&OOOOOOOOOOOOOOOOOOOOOOOOOOOOOO&&&&&&",
"&&&&&O+$O%$%$$++++$++$$$$$+$+++++O+$O&&&&&",
"&&&&&O++OO+$++OOOOOOO+++++++OOO$OO++O&&&&&",
"&&&&&XOOOOOOOOOOOOOOOOOOOOOOOOOOOOOOX&&&&&",
"&&&&&&&&&&&&&&&&&&&&&&&&&&&&&&&&&&&&&&&&&&",
"&&&&&&&&&&&&&&&&&&&&&&&&&&&&&&&&&&&&&&&&&&",
"&&&&&&&&&&&&&&&&&&&&&&&&&&&&&&&&&&&&&&&&&&",
"&&&&&&&&&&&&&&&&&&&&&&&&&&&&&&&&&&&&&&&&&&",
"&&&&&&&&&&&&&&&&&&&&&&&&&&&&&&&&&&&&&&&&&&"
};
