/* XPM */
static char *result[] = {
/* columns rows colors chars-per-pixel */
"42 42 6 1 ",
"  c #39231B",
". c #492D24",
"X c #613C2F",
"o c #683F33",
"O c #6D4034",
"+ c #734136",
/* pixels */
"++++++++++++++++++++++++++++++++++++XX... ",
"+++++++++++++++++++++++++++++++++++++XX.. ",
"+++++++++++++++++++++++++++++++++++XXXXX. ",
"++++++++++++++++++++++++++++++++++XX+XX.. ",
"++++++++++++++++++++++++++++++++++X+XXXX. ",
"+++++++++++++++++++++++++++++++++++++XX.. ",
"+++++++++++++++++++++++++++++++++++++XX.. ",
"++++++++++++++++++++++++++++++++++++X+XX. ",
"+++++++++++++++++++++++++++++++++++++XXX. ",
"+++++++++++++++++++++++++++++++++++++XXX. ",
"++++++++++++++++++++++++++++++++++++++XX. ",
"+++++++++++++++++++++++++++++++++++++XXX. ",
"+++++++++++++++++++++++++O++++++++++++XX. ",
"+++++++++++++++++++++++++O+++++++++++XXX. ",
"+++++++++++++++++++++++++O++++++++++++XX. ",
"++++++++++++++++++++++++OOO++++++++++XXX. ",
"++++++++++++++++++++++++OOO+++++++++++XX. ",
"++++O+++++++++++++++++++OoO++++++++++XXX. ",
"++++O+++++++++++++++++++OOOO++++++++++XX. ",
"++++O++++++++++++++++o++OOOO++++++++++XX. ",
"+++++++++++++++++++++o+++OO++++++++++XXX. ",
"+++++++++++++++++++++++++O+++++++++++XX.. ",
"+++++++++++++++++++++++++O+++++++++++XXX. ",
"+++++++++++++++++++++++++O+++++++++++XX.. ",
"+++++++++++++++++++++++++O+++++++++++XXX. ",
"+++++++++++++++++++++++++O+++++++++++XX.. ",
"+++++++++++++++++++++++++O++++++++++XXX.. ",
"O++++++++++++++++++++++++++++++++++++XX.. ",
"O+++++++++++++++++++++++++++++++++++XXX.. ",
"++++++++++++++++++++++++++++++++++++XX... ",
"+++++++++++++++++++++++++++++++++++++XX.. ",
"++++++++++++++++++++++++++++++++++++XX... ",
"+++++++++++++++++++++++++++++++++++++XX.. ",
"++++++++++++++++++++++++++++++++++++XX... ",
"+++++++++++++++++++++++++++++++++++++XX.. ",
"++++++++++++++++++++++++++++++++++++XX.X. ",
"+++++++++++++++++++++++++++++++++++++XX.. ",
"++++++++++++++++++++++++++++++++O++++XXX. ",
"+++++++++++++++++++++++++++++++++++++XX.. ",
"+++++++++++++++++++++++++++++++OO++++XXX. ",
"+++++++++++++++++++++++++++++++OO++++XX.. ",
"+++++++++++++++++++++++++++++++OO+++++XX. "
};
