/* XPM */
static char *result[] = {
/* columns rows colors chars-per-pixel */
"42 42 8 1 ",
"  c #1B1216",
". c #271916",
"X c #3E2920",
"o c #4F2F27",
"O c #59352C",
"+ c #643B31",
"@ c #8A5340",
"# c None",
/* pixels */
"##########################################",
"##########################################",
"##########################################",
"##########################################",
"##########################################",
"##########################################",
"##########################################",
"##########################################",
"##########################################",
"##########################################",
"##########################################",
"#####################    #################",
"#################### oOoo     ############",
"##########    ###   +@Oo.XOOoo  ##########",
"######### O@Oo # ooOOOo.XO+Ooooo #########",
"######## oO+@+o .XooXX.XoOOXoooX #########",
"######## XooX+OoX..X..ooooX.XXXX #########",
"######## XXXXo@+Ooo............. #########",
"######## .XX.o+@+OooooX......... #########",
"######## ....XXooooXO+Ooooo...XXX ########",
"######## ......XXXX.XooX...XoooXX ########",
"######## oXX............XXoO+OooXX########",
"####### oOOoXXX.......XoOO+@OOooXX########",
"####### oO@@@OooO@@+o.oO@@@+OooXX.########",
"####### XXoOOOXoOO++oooO++OOoXXX..########",
"####### XXXXooXXoOOOoXooOOoXXXX.. ########",
"####### ..XXXX.XXoooX.XooXXXX... #########",
"######## ....X..XXXXX.XXXXX.... ##########",
"######## ........XXX..XX...... ###########",
"#########    ..............   ############",
"############    ........    ##############",
"###############          #################",
"##########################################",
"##########################################",
"##########################################",
"##########################################",
"##########################################",
"##########################################",
"##########################################",
"##########################################",
"##########################################",
"##########################################"
};
