/* XPM */
static char *result[] = {
/* columns rows colors chars-per-pixel */
"42 42 8 1 ",
"  c #1B1216",
". c #271916",
"X c #3E2920",
"o c #4F2F27",
"O c #59352C",
"+ c #643B31",
"@ c #8A5340",
"# c None",
/* pixels */
"##########################################",
"##########################################",
"##########################################",
"##########################################",
"##########################################",
"##########################################",
"##########################################",
"##########################################",
"###################     ##################",
"################## +Oo.. #################",
"################# XOoX+Oo ################",
"###############  o.oX.+Ooo ###############",
"############## oOoX.....X..  #############",
"############# oO+OoXXXXoXoooo ############",
"############# oO++@@@++OOOooX. ###########",
"#############.XoO+++++OoOooX.Xo ##########",
"############ X.XoooooooXooX.Xoo ##########",
"##########  ooX............Xooo ##########",
"######### oO+OooXXXXXXXoXXoOooX ##########",
"######### oO+@+Ooo+@@++OooO+o.X. #########",
"######### ooO+@Ooo++++OOXooo.XoXo ########",
"#########.XXXoooXooooooooX..oOOOo ########",
"######## o....XX.XXXXXXX...o++OOoX########",
"######## oO+XXX.........XooO@+OOoX########",
"####### ooOOo@@+OoX.XXXoOOXoOOooXX########",
"####### XooOOO+@+OoXO@@++OoXoooXXX########",
"####### XXXXXoO++OooO++++Oo.XXXXX.########",
"####### .XX.XXooooXXooooooX..XX . ########",
"######## .....................   #########",
"#########   ................   ###########",
"###########      .......     #############",
"################         #################",
"##########################################",
"##########################################",
"##########################################",
"##########################################",
"##########################################",
"##########################################",
"##########################################",
"##########################################",
"##########################################",
"##########################################"
};
