/* XPM */
static char *result[] = {
/* columns rows colors chars-per-pixel */
"42 42 11 1 ",
"  c #1B1216",
". c #271916",
"X c #332216",
"o c #3E2920",
"O c #44281E",
"+ c #45281E",
"@ c #4F2D23",
"# c #502E23",
"$ c #5A3428",
"% c #814C37",
"& c None",
/* pixels */
"&&&&&&&&&&&&&&&&&&&&&&&&&&&&&&&&&&&&&&&&&&",
"&&&&&&&&&&&&&&&&&&&&&&&&&&&&&&&&&&&&&&&&&&",
"&&&&&&&&&&&&&&&&&&&&&&&&&&&&&&&&&&&&&&&&&&",
"&&&&&&&&&&&&&&&&&&&&&&&&&&&&&&&&&&&&&&&&&&",
"&&&&&&&&&&&&&&&&&&&&&&&&&&&&&&&&&&&&&&&&&&",
"&&&&&&&&&&&&&&&&&&&&&&&&&&&&&&&&&&&&&&&&&&",
"&&&&&&&&&&&&&&&&&&&&&&&&&&&&&&&&&&&&&&&&&&",
"&&&&&&&&&&&&&&&&&&&&&&&&&&&&&&&&&&&&&&&&&&",
"&&&&&&&&&&&&&&&&&&&&&&&&&&&&&&&&&&&&&&&&&&",
"&&&&&&&&&&&&&&&&&&&&&&&&&&&&&&&&&&&&&&&&&&",
"&&&&&&&&&&&&&&&&&&&&&&&&&&&&&&&&&&&&&&&&&&",
"&&&&&&&&&&&&&&&&&&&&&&&&&&&&&&&&&&&&&&&&&&",
"&&&&&&&&&&&&&&     &&&&&&&&&&&&&&&&&&&&&&&",
"&&&&&&&&&&&&& .++oo &&&&&&&    &&&&&&&&&&&",
"&&&&&&&&&&&& .oo++.+ &&&&& .++o &&&&&&&&&&",
"&&&&&&&&&&&& .o.ooo. &   & .o+o. &&&&&&&&&",
"&&&&&&&&&&&& ...oo. & ooo & ..o &&&&&&&&&&",
"&&&&&&&&&&&&&         o+%o &      &&&&&&&&",
"&&&&&&&&&   &&&& o+++ooooo && o++o &&&&&&&",
"&&&&&&&& .o.  && Xo+%++oo && oo++o &&&&&&&",
"&&&&&&&& o#Oo. & ooooooo &&& o.oo. &&&&&&&",
"&&&&&&&& X$%#o &&   ooo &&& ++o.o. &&&&&&&",
"&&&&&&&& .X@Oo &&&&&   &&  +++o... &&&&&&&",
"&&&&&&&&& .... &&&&&&&&  ++++oo.. &&&&&&&&",
"&&&&&&&&&& .. &&    && o+++oo.... &&&&&&&&",
"&&&&&&&&&&&  && O###  ooo+oo.... &&&&&&&&&",
"&&&&&&&&&&&&&&& ..ooooo.oo..... &&&&&&&&&&",
"&&&&&&&&&&&&&&& .....o......   &&&&&&&&&&&",
"&&&&&&&&&&&&&&&&            &&&&&&&&&&&&&&",
"&&&&&&&&&&&&&&&&&&&&&&&&&&&&&&&&&&&&&&&&&&",
"&&&&&&&&&&&&&&&&&&&&&&&&&&&&&&&&&&&&&&&&&&",
"&&&&&&&&&&&&&&&&&&&&&&&&&&&&&&&&&&&&&&&&&&",
"&&&&&&&&&&&&&&&&&&&&&&&&&&&&&&&&&&&&&&&&&&",
"&&&&&&&&&&&&&&&&&&&&&&&&&&&&&&&&&&&&&&&&&&",
"&&&&&&&&&&&&&&&&&&&&&&&&&&&&&&&&&&&&&&&&&&",
"&&&&&&&&&&&&&&&&&&&&&&&&&&&&&&&&&&&&&&&&&&",
"&&&&&&&&&&&&&&&&&&&&&&&&&&&&&&&&&&&&&&&&&&",
"&&&&&&&&&&&&&&&&&&&&&&&&&&&&&&&&&&&&&&&&&&",
"&&&&&&&&&&&&&&&&&&&&&&&&&&&&&&&&&&&&&&&&&&",
"&&&&&&&&&&&&&&&&&&&&&&&&&&&&&&&&&&&&&&&&&&",
"&&&&&&&&&&&&&&&&&&&&&&&&&&&&&&&&&&&&&&&&&&",
"&&&&&&&&&&&&&&&&&&&&&&&&&&&&&&&&&&&&&&&&&&"
};
