/* XPM */
static char *result[] = {
/* columns rows colors chars-per-pixel */
"15 15 11 1 ",
"  c #070000",
". c #060100",
"X c #070101",
"o c #080000",
"O c #090000",
"+ c #090100",
"@ c #090001",
"# c #0A0001",
"$ c #090003",
"% c gray12",
"& c None",
/* pixels */
"&&&&&&&&&&&&&&&",
"&&&&&&&&&&&&&&&",
"&&&oo&&&oo&&&&&",
"&&#%%X&X%%+&&&&",
"&o%..%@%..%#&&&",
"o%....%....%o&&",
"o%.........%o&&",
"o%.........%X&&",
"&o%.......%$&&&",
"&&+%.....% &&&&",
"&&&O%...%o&&&&&",
"&&&&o%.%o&&&&&&",
"&&&&&X%X&&&&&&&",
"&&&&&&@&&&&&&&&",
"&&&&&&&&&&&&&&&"
};
