/* XPM */
static char *result[] = {
/* columns rows colors chars-per-pixel */
"15 15 22 1 ",
"  c #070000",
". c #070101",
"X c #080000",
"o c #090000",
"O c #090100",
"+ c #090001",
"@ c #0A0001",
"# c #090003",
"$ c gray12",
"% c #790000",
"& c #E40000",
"* c #E60000",
"= c #E60100",
"- c #E50102",
"; c #E60002",
": c #E60003",
"> c #E80000",
", c #E90101",
"< c #E80002",
"1 c #F69679",
"2 c white",
"3 c None",
/* pixels */
"333333333333333",
"333333333333333",
"333XX333XX33333",
"33@$$.3.$$O3333",
"3X$<<$+$<<$@333",
"X$<21<$<1-<$X33",
"X$>1=&<-><>$X33",
"X$%>,=:*>>%$.33",
"3X$%>*>;>%$#333",
"33O$%>*>%$ 3333",
"333o$%>%$X33333",
"3333X$%$X333333",
"33333.$.3333333",
"333333+33333333",
"333333333333333"
};
