/* XPM */
static char *result[] = {
/* columns rows colors chars-per-pixel */
"42 42 5 1 ",
"  c #272120",
". c #362926",
"X c #59403B",
"o c #70514A",
"O c None",
/* pixels */
"OOOOOOOOOOOOOOOOOOOOOOOOOOOOOOOOOOOOOOOOOO",
"OOOOOOOOOOOOOOOOOOOOOOOOOOOOOOOOOOOOOOOOOO",
"OOOOOOOOOOOOOOOOOOOOOOOOOOOOOOOOOOOOOOOOOO",
"OOOOOOOOOOOOOOOOOOOOOOOOOOOOOOOOOOOOOOOOOO",
"OOOOOOOOOOOOOOOOOOOOOOOOOOOOOOOOOOOOOOOOOO",
"OOOOOOOOOOOOOOOOOOOOOOOOOOOOOOOOOOOOOOOOOO",
"OOOOOOOOOOOOOOOOOOOOOOOOOOOOOOOOOOOOOOOOOO",
"OOOOOOOOOOOOO         OO       OOOOOOOOOOO",
"OOOOOOOOOOO  .XXXXo...  .XXXXX. OOOOOOOOOO",
"OOOOOOOOOO .XXXXXXXo....XXXXXXX OOOOOOOOOO",
"OOOOOOOOO .XXXXXXXXXo...oXXoXXX OOOOOOOOOO",
"OOOOOOOOO XXXXXXXXXXX...ooXXXXo OOOOOOOOOO",
"OOOOOOOOO XoXXXXXXXXo  .oXXXXo. OOOOOOOOOO",
"OOOOOOOOO XXXXXXXXXo... oXXXo.. OOOOOOOOOO",
"OOOOOOOOO XXXXXXXXXo.... oXo... OOOOOOOOOO",
"OOOOOOOOO XXXXXXXXo...... ..... OOOOOOOOOO",
"OOOOOOOOO XXXXXXXXo....... .... OOOOOOOOOO",
"OOOOOOOOO XXXXXXXX......... ... OOOOOOOOOO",
"OOOOOOOOO XXXXXXXX.......... . OOOOOOOOOOO",
"OOOOOOOOO XXXXXXXo...........  OOOOOOOOOOO",
"OOOOOOOO oXXoXXXXo............. OOOOOOOOOO",
"OOOOOOOO .XXXXXXX............... OOOOOOOOO",
"OOOOOOOO .XXXXXXo............... OOOOOOOOO",
"OOOOOOOO .XXXXXXo........X.X.X.. OOOOOOOOO",
"OOOOOOOO .oXXXXo........X.XXX.X. OOOOOOOOO",
"OOOOOOOO ....... ....X...XXXXX.. OOOOOOOOO",
"OOOOOOOOO ..X.X.. ..X...XXXXX.X. OOOOOOOOO",
"OOOOOOOOO ...X.X.  ......XXX.X.. OOOOOOOOO",
"OOOOOOOOOO .......   .......X.X. OOOOOOOOO",
"OOOOOOOOOOO    ...    .......... OOOOOOOOO",
"OOOOOOOOOOOOOOO   OOOO  ... .... OOOOOOOOO",
"OOOOOOOOOOOOOOOOOOOOOOOO   O    OOOOOOOOOO",
"OOOOOOOOOOOOOOOOOOOOOOOOOOOOOOOOOOOOOOOOOO",
"OOOOOOOOOOOOOOOOOOOOOOOOOOOOOOOOOOOOOOOOOO",
"OOOOOOOOOOOOOOOOOOOOOOOOOOOOOOOOOOOOOOOOOO",
"OOOOOOOOOOOOOOOOOOOOOOOOOOOOOOOOOOOOOOOOOO",
"OOOOOOOOOOOOOOOOOOOOOOOOOOOOOOOOOOOOOOOOOO",
"OOOOOOOOOOOOOOOOOOOOOOOOOOOOOOOOOOOOOOOOOO",
"OOOOOOOOOOOOOOOOOOOOOOOOOOOOOOOOOOOOOOOOOO",
"OOOOOOOOOOOOOOOOOOOOOOOOOOOOOOOOOOOOOOOOOO",
"OOOOOOOOOOOOOOOOOOOOOOOOOOOOOOOOOOOOOOOOOO",
"OOOOOOOOOOOOOOOOOOOOOOOOOOOOOOOOOOOOOOOOOO"
};
