/* XPM */
static char *result[] = {
/* columns rows colors chars-per-pixel */
"42 42 25 1 ",
"  c black",
". c #070001",
"X c #21100E",
"o c #371613",
"O c #39231B",
"+ c #491A16",
"@ c #591110",
"# c #5F1513",
"$ c #581C18",
"% c #671A17",
"& c #6D1D1A",
"* c #54211C",
"= c #74221D",
"- c #492D24",
"; c #642B23",
": c #762421",
"> c #782624",
", c #6E3128",
"< c #613C2F",
"1 c #7B392F",
"2 c #704436",
"3 c #704536",
"4 c #83423B",
"5 c #835140",
"6 c #8E5E52",
/* pixels */
"                                          ",
". .........   ........ ..... . .     .  . ",
"X XXXXXXXXXXXXXXXXXXXXXXXXXXXXXX X    X  X",
"XXXXXXXXXXXXXXXXXXXXXXXXXXXXXXX X      XX ",
"XXXXXXXXXXXXXXXXXXXXXXXXXXXXXXXXoX  XXXXXX",
"XXXXXXXXXXXXXXXXXXXXXXXXXXXXXXXoX  XoXXXXX",
"ooooooooooooooooooooooooooooooooX  ooooooo",
"ooooooooooooooooooooooooooooooo+o  o+ooooo",
"+++++++++++++++++++++++++++++++++o +++++++",
"++++++++++++++++++++++++++++++++++o+++++++",
"$$$$+$++$$$$$$$$$$$$$$$$$$$$$$$$$+o$$$$$$$",
"$$$$$$$$$$$$$$$$$$$$$$$$$$$$$$$$$$+$$$$$$$",
"&&&&&&&&&&&&&&&&&&&&&&&&&&&&&&&&&&$$&&&&&&",
">>>>>>>>>>>>>>>>>>>>>>>>>>>>>>>>>&&&&>>>>>",
"&&&>>>>>>>>>>>>>:>::::>>>>>>>>>>>>>&>>>>>>",
"&>>$&&>>:::::>::=:====::::::::>=:::>::::::",
"&>:&&>::=====:================::===:======",
"65524====151===========11======1==&$125555",
"55565===155551=====1555555551==51==&255555",
"555551==55551551==15555555555==55==&255555",
"555555==5555==551=15555555555==15=1=225555",
"555555==1555==555==5555555555===21==&25555",
"5555551==555==555==55555555551==25==&25555",
"5555555==5551=5555555555555555==551=;25555",
"5555555==5525=5555555522555555==5551;25555",
"55555551=156555555555252255555==5552<25255",
"55555252==555555252525222255551&55525<2555",
"55252525&=225252525252222552525525252<2525",
"22522222,&,2252225222222<222252552522<-252",
"-22222222&&222222222222<-22222222222<+@*22",
"-------O--------------*##*----------+@##*-",
"55552-O--25555555555555==555555555552-===5",
"222222--222222222222222&&2222222222222&,&2",
"22222<--<22222222222222,&,222222222222&2&2",
"3333333--<33333333333<33&&333333333333&3&3",
"333333<--<33333333333533,&333333333333&,&3",
"3<33333-<<333333333333333&333333333333,&&3",
"353333<--<<<3333333333333&<333333333333&&3",
"<33<3<3O-<<3<3333333333<3<3<3<<3<333333&,<",
"<<3<3<3<O-<<<<<3<3<3<3<<3<<<<<<<-<<3<3<&33",
"<<<<<<<-O--<<-<<<<<<<<<<<<<<<<<<-<<<<<;%;<",
"--------OO---O-----------------------*####"
};
