/* XPM */
static char *result[] = {
/* columns rows colors chars-per-pixel */
"42 42 8 1 ",
"  c gray12",
". c #222222",
"X c #282A2A",
"o c #292B2B",
"O c #373939",
"+ c gray28",
"@ c #535353",
"# c None",
/* pixels */
"##########################################",
"##########################################",
"##########################################",
"##########################################",
"##########################################",
"##########################################",
"##########################################",
"##########################################",
"##########################################",
"##################......##################",
"###############...++++++...###############",
"#############..+++@@@@@@+++..#############",
"############.++@@@@++++@@@@++.############",
"###########.+@@@++OOOOOO++@@@+.###########",
"##########.+@@+OOOOOOOOOOOO+@@+.##########",
"##########.+@@OOOooooooooOOO@@+.##########",
"##########.O@@OOooo    oooOO@@O.##########",
"##########.O@@+oo        oo+@@O.##########",
"#########..O+@@@+O      O+@@@+O..#########",
"########.XXOO+@@@@@@@@@@@@@@+OOXX.########",
"########.XO++OO++@@@@@@@@++OO++OX.########",
"#######.XO+++++OOO++++++OOOO++++OX.#######",
"#######.XO++++++++OOOOOO+++O++++OX.#######",
"#######.XO+++++++++++++O+++O++++OX.#######",
"#######.XOO+++++++++++++O++O+++OOX.#######",
"#######.XOO++++++++++++++OO++++OOX.#######",
"########.XOO++++++++++++++O+++OOX.########",
"########.XOOO+++++++++++++O++OOOX.########",
"#########.XOOOO+++++++++++OOOOOX.#########",
"#########.XXXOOOOO++++++OOOOOXXX.#########",
"##########.XXXXOOOOOOOOOOOOXXXX.##########",
"###########.XXXXXOOOOOOOOXXXXX.###########",
"############.XXXXXXXXXXXXXXXX.############",
"#############..XXXXXXXXXXXX..#############",
"###############...XXXXXX...###############",
"##################......##################",
"##########################################",
"##########################################",
"##########################################",
"##########################################",
"##########################################",
"##########################################"
};
