/* XPM */
static char *result[] = {
/* columns rows colors chars-per-pixel */
"42 42 23 1 ",
"  c black",
". c #070001",
"X c #21100E",
"o c #371613",
"O c #491A16",
"+ c #5F1513",
"@ c #581C18",
"# c #671A17",
"$ c #6D1D1A",
"% c #54211C",
"& c #74221D",
"* c #492D24",
"= c #642B23",
"- c #762421",
"; c #782624",
": c #6E3128",
"> c #613C2F",
", c #7B392F",
"< c #704436",
"1 c #704536",
"2 c #835140",
"3 c #895849",
"4 c #8E5E52",
/* pixels */
">1111$$:2*<<<&&,22&&&&,,&-;;$@@OOooXXXXXX ",
">>111<$$&%<<2<&&,22,&&&&&-;;$@@OOooXXXXXX ",
"*>>11<<$&+*<<<2222222,&&&-;;$@@OOooXXXXXX ",
">*>>1<<<&+%*<<<2222222,&&-;;$@@OOooXXXXX  ",
">>*>1<<<&+*<<<2$&&,2222&&-;;$@@OOooXXXXXX ",
">>>*><<<2+*<<2<,&&&&,22&&-;;$@@@OooXXXXXX ",
":1>>*><<2*<<<<22,&&&&&2&&-;;$@@OOooXXXXXX ",
"$:11>*><2*<<<2<222,&&&,&&-;;$@@OOooXXXXXX ",
"$$:11>*>2*<<2<22222,&&&&&-;;$@@OOooXXXXXX ",
"<$$:<<>*2*<<<2222222,&&&&&-;$@@OOOoXXXXX  ",
"<<$$:<<>**<<2<2222222&&&&&-;$@@OOooXXXX   ",
"222&&,22<*$$:2222&,22,&&&&-;$@OOOooXXXXX  ",
"**%+++%***+&&&&,,&&222&&&&-;$@OOOooXXXXXX ",
"<<<<<<<$$=#=$&&&&&&,22,&&-;;$@@OOooXXXXXX ",
"<<<2<2<$$$$<=$&&&&&&,22&&-;;$@OOOooXXXXXX ",
"2<2<2<2:&$$<<=$&&&&&&,2&&-;;$@@OOOoXXXXXX ",
"222222<2$&$<2<=$&,,&&&,&&-;;$@@OOooXXXXXX ",
"24422222,&$2<<<=$&,,&&&&&-;;$@@OOOoXXXXXX ",
"22<222222&,<2<2<=$&,,&&&&-;;$@@OOooXXXXXX ",
"222222222&&,2222$#$&,,&&&-;;$@@OOooXXXXXX ",
"22&222222,&&2222&&#&&,&&&-;$$@@OOooXXXXX  ",
"22&,222222,&2222,&&#&&&&&-;&$@@OOooXXXXX  ",
"&2&&,22222&&,22&&&&&$&&&&-;;$@@OOOoXXXXX  ",
"&2,&&22222&&&,2&&&&&&$&&&-;$$@@OOOoXXXXXX ",
",22&&,2222,&&&,&&&&&&&$&&-;$$@@OOooXXXXXX ",
"322&&&&,22,&&&&&&&&&&&&&&-;$$@@OOooXXXX X ",
";-&&&&&&&&&&&&&&&&&&&&&&&-;$$@@OOooXXXXXX ",
"$;----------&&&&--------&#;;$@OOOooXXXX X ",
";;;;;;;;;;;;----;;;;;;;;--#$@@OOOooXXXXX  ",
";;;;;;;;;;;;;;;;;;;;;;;;;;$O@OOOOoXoX X X ",
"$$$$$$$$$$$$$$$$$$$$$$$$$$@@OOoOooXX X X  ",
"@@@@@@@@@@@@@@@@@@@@@@@@@@@Oo X           ",
"OO@@@@@@@@@@OOOOOOOOO@OOOOOOo oOOoX       ",
"OOOOOOOOOOOOOOOOOOOOOOOOOOOOO OooXoXX X   ",
"OOOOOOOOOOOOOOOOOOOOOOOOOOOOo oooXXoXX X  ",
"oooooooooooooooooooooooooooOo  XoXXXXXX X ",
"ooooooooooooooooooooooooooooo  XoXXXXX X  ",
"XXXXXXXXXXXXXXXXXXXXXXXXXXXoX   XoXXXXXXX ",
"XXXXXXXXXXXXXXXXXXXXXXXXXXXX   XoXoXXXXX  ",
"XXXXXXXXXXXXXXXXXXXXXXXXXXXX    XXXXXXXXX ",
"XXXXXXXXXXXXXXXXXXXXXXX XXX X   X XXX XXX ",
". .. ....  .......... .. . .   . ..... .  "
};
