/* XPM */
static char *result[] = {
/* columns rows colors chars-per-pixel */
"42 42 10 1 ",
"  c black",
". c #030000",
"X c #080000",
"o c #B97371",
"O c #CF9C9B",
"+ c #9CC8CC",
"@ c #9CC8CD",
"# c #E3C6C5",
"$ c white",
"% c None",
/* pixels */
"%%%%%%%%%%%%%%%%%%%%%%%%%%%%%%%%%%%%%%%%%%",
"%%%%%%%%%%%%%%%%%%%%%%%%%%%%%%%%%%%%%%%%%%",
"%%%%%%%%%%%%%%%%%%%%%%%%%%%%%%%%%%%%%%%%%%",
"%%%%%%%%%%%%%%%%%%%%%%%%%%%%%%%%%%%%%%%%%%",
"%%%%%%%%%%%%%%%%%%%%%%%%%%%%%%%%%%%%%%%%%%",
"%%%%%%%%%%%%%%%%%XXXXXXXX%%%%%%%%%%%%%%%%%",
"%%%%%%%%%%%%%%%XXXXXXXXXXXX%%%%%%%%%%%%%%%",
"%%%%%%%%%%%%%XXXXOOOOOOOOXXXX%%%%%%%%%%%%%",
"%%%%%%%%%%%%XXXO##########OXXX%%%%%%%%%%%%",
"%%%%%%%%%%%XXO##############OXX%%%%%%%%%%%",
"%%%%%%%%%%XXO################OXX%%%%%%%%%%",
"%%%%%%%%%XXO##################OXX%%%%%%%%%",
"%%%%%%%%%XX########O##O########XX%%%%%%%%%",
"%%%%%%%%XXO########O##O########OXX%%%%%%%%",
"%%%%%%%%XX#########O##O#########XX%%%%%%%%",
"%%%%%%%XXO########O####O########OXX%%%%%%%",
"%%%%%%%XXO######################OXX%%%%%%%",
"%%%%%%%XXO#######O######O#######OXX%%%%%%%",
"%%%%%%%XXOO######o######o######OOXX%%%%%%%",
"%%%%%%%XXoO#####Oo######oO#####OoXX%%%%%%%",
"%%%%%%%%XXOXOOOOoX######XoOOOOXOXX%%%%%%%%",
"%%%%%%%%XXooXXXXXO#XXXX#OXXXXXOoXX%%%%%%%%",
"%%%%%%%%%XXXXXXXXoXXXXXX##O+++OXX%%%%%%%%%",
"%%%%%%%%%XXXXO#OXXX$$$$X#XXXX@oXX%%%%%%%%%",
"%%%%%%%%%%XXO###OXXXXXXXXXXXXXXX%%%%%%%%%%",
"%%%%%%%%%%XXoOOOoXOOOOoXXO#OXXXX%%%%%%%%%%",
"%%%%%%%%%%%XXoOoXXOOOOXXO###OXX%%%%%%%%%%%",
"%%%%%%%%%%%XXXXXXoooooXXO##OoXX%%%%%%%%%%%",
"%%%%%%%%%%%%XXXXXXXXXXXXXOOoXX%%%%%%%%%%%%",
"%%%%%%%%%%%XXXoooXXXXXXXXXXXX%%%%%%%%%%%%%",
"%%%%%%%%%%%XXO##oooooooXXXXX%%%%%%%%%%%%%%",
"%%%%%%%%%%XXO###OoOOOoXXX%%%%%%%%%%%%%%%%%",
"%%%%%%%%%%XXO###ooOOoXXX%%%%%%%%%%%%%%%%%%",
"%%%%%%%%%%XXXOOOXXooXXX%%%%%%%%%%%%%%%%%%%",
"%%%%%%%%%%%XXXXXoooXXX%%%%%%%%%%%%%%%%%%%%",
"%%%%%%%%%%%%XXXX.  XX%%%%%%%%%%%%%%%%%%%%%",
"%%%%%%%%%%%%%%%XXXXX%%%%%%%%%%%%%%%%%%%%%%",
"%%%%%%%%%%%%%%%%%%%%%%%%%%%%%%%%%%%%%%%%%%",
"%%%%%%%%%%%%%%%%%%%%%%%%%%%%%%%%%%%%%%%%%%",
"%%%%%%%%%%%%%%%%%%%%%%%%%%%%%%%%%%%%%%%%%%",
"%%%%%%%%%%%%%%%%%%%%%%%%%%%%%%%%%%%%%%%%%%",
"%%%%%%%%%%%%%%%%%%%%%%%%%%%%%%%%%%%%%%%%%%"
};
