/* XPM */
static char *result[] = {
/* columns rows colors chars-per-pixel */
"28 28 5 1 ",
"  c #080000",
". c #B97371",
"X c #CF9C9B",
"o c #E3C6C5",
"O c None",
/* pixels */
"OOOOOOOOOO        OOOOOOOOOO",
"OOOOOOOOO          OOOOOOOOO",
"OOOOOOOO  .XXXXXX.  OOOOOOOO",
"OOOOOOO  .XXXXXXXX.  OOOOOOO",
"OOOOOO  XoXXXXXXXXoX  OOOOOO",
"OOOOO  XooXXXXXXXXooX  OOOOO",
"OOOOO  Xo XooooooX oX  OOOOO",
"OOOOO  Xo oooooooo oX  OOOOO",
"OOOOOO    ooX  Xoo    OOOOOO",
"OOOOOOO   ooo  Xoo   OOOOOOO",
"OOOOOOOO   oo  Xo   OOOOOOOO",
"OOOOOOOOO          OOOOOOOOO",
"OOOOOOOOOO   OO   OOOOOOOOOO",
"OOOOOOOOOOOOOOOOOOOOOOOOOOOO",
"OOOOOOOOOOOOOOOOOOOOOOOOOOOO",
"OOOOOOOOOOOOOOOOOOOOOOOOOOOO",
"OOOOOOOOOOOOOOOOOOOOOOOOOOOO",
"OOOOOOOOOOOOOOOOOOOOOOOOOOOO",
"OOOOOOOOOOOOOOOOOOOOOOOOOOOO",
"OOOOOOOOOOOOOOOOOOOOOOOOOOOO",
"OOOOOOOOOOOOOOOOOOOOOOOOOOOO",
"OOOOOOOOOOOOOOOOOOOOOOOOOOOO",
"OOOOOOOOOOOOOOOOOOOOOOOOOOOO",
"OOOOOOOOOOOOOOOOOOOOOOOOOOOO",
"OOOOOOOOOOOOOOOOOOOOOOOOOOOO",
"OOOOOOOOOOOOOOOOOOOOOOOOOOOO",
"OOOOOOOOOOOOOOOOOOOOOOOOOOOO",
"OOOOOOOOOOOOOOOOOOOOOOOOOOOO"
};
