/* XPM */
static char *result[] = {
/* columns rows colors chars-per-pixel */
"28 28 5 1 ",
"  c #080000",
". c #B97371",
"X c #CF9C9B",
"o c #E3C6C5",
"O c None",
/* pixels */
"OOOOOOOOOO       OOOOOOOOOOO",
"OOOOOOOOO         OOOOOOOOOO",
"OOOOOOOO  .XXXXX.  OOOOOOOOO",
"OOOOOOO  .XXXXXXX.  OOOOOOOO",
"OOOOOOO  XXXXXXXooX  OOOOOOO",
"OOOOOOO  XXXXXXXoooX  OOOOOO",
"OOOOOOO  oooooXX ooX  OOOOOO",
"OOOOOOO  XoooooXX oX  OOOOOO",
"OOOOOOO   oooXXX     OOOOOOO",
"OOOOOOO   ooXXX  .  OOOOOOOO",
"OOOOOOO   XXXX  ..  OOOOOOOO",
"OOOOOOOO           OOOOOOOOO",
"OOOOOOOOO     O   OOOOOOOOOO",
"OOOOOOOOOOOOOOOOOOOOOOOOOOOO",
"OOOOOOOOOOOOOOOOOOOOOOOOOOOO",
"OOOOOOOOOOOOOOOOOOOOOOOOOOOO",
"OOOOOOOOOOOOOOOOOOOOOOOOOOOO",
"OOOOOOOOOOOOOOOOOOOOOOOOOOOO",
"OOOOOOOOOOOOOOOOOOOOOOOOOOOO",
"OOOOOOOOOOOOOOOOOOOOOOOOOOOO",
"OOOOOOOOOOOOOOOOOOOOOOOOOOOO",
"OOOOOOOOOOOOOOOOOOOOOOOOOOOO",
"OOOOOOOOOOOOOOOOOOOOOOOOOOOO",
"OOOOOOOOOOOOOOOOOOOOOOOOOOOO",
"OOOOOOOOOOOOOOOOOOOOOOOOOOOO",
"OOOOOOOOOOOOOOOOOOOOOOOOOOOO",
"OOOOOOOOOOOOOOOOOOOOOOOOOOOO",
"OOOOOOOOOOOOOOOOOOOOOOOOOOOO"
};
