/* XPM */
static char *result[] = {
/* columns rows colors chars-per-pixel */
"28 28 5 1 ",
"  c #080000",
". c #B97371",
"X c #CF9C9B",
"o c #E3C6C5",
"O c None",
/* pixels */
"OOOOOOOOOOO       OOOOOOOOOO",
"OOOOOOOOOO         OOOOOOOOO",
"OOOOOOOOO  .XXXXX.  OOOOOOOO",
"OOOOOOOO  .XXXXXXX.  OOOOOOO",
"OOOOOOO  XooXXXXXXX  OOOOOOO",
"OOOOOO  XoooXXXXXXX  OOOOOOO",
"OOOOOO  Xoo XXooooo  OOOOOOO",
"OOOOOO  Xo XXoooooX  OOOOOOO",
"OOOOOOO     XXXooo   OOOOOOO",
"OOOOOOOO  .  XXXoo   OOOOOOO",
"OOOOOOOO  ..  XXXX   OOOOOOO",
"OOOOOOOOO           OOOOOOOO",
"OOOOOOOOOO   O     OOOOOOOOO",
"OOOOOOOOOOOOOOOOOOOOOOOOOOOO",
"OOOOOOOOOOOOOOOOOOOOOOOOOOOO",
"OOOOOOOOOOOOOOOOOOOOOOOOOOOO",
"OOOOOOOOOOOOOOOOOOOOOOOOOOOO",
"OOOOOOOOOOOOOOOOOOOOOOOOOOOO",
"OOOOOOOOOOOOOOOOOOOOOOOOOOOO",
"OOOOOOOOOOOOOOOOOOOOOOOOOOOO",
"OOOOOOOOOOOOOOOOOOOOOOOOOOOO",
"OOOOOOOOOOOOOOOOOOOOOOOOOOOO",
"OOOOOOOOOOOOOOOOOOOOOOOOOOOO",
"OOOOOOOOOOOOOOOOOOOOOOOOOOOO",
"OOOOOOOOOOOOOOOOOOOOOOOOOOOO",
"OOOOOOOOOOOOOOOOOOOOOOOOOOOO",
"OOOOOOOOOOOOOOOOOOOOOOOOOOOO",
"OOOOOOOOOOOOOOOOOOOOOOOOOOOO"
};
