/* XPM */
static char *result[] = {
/* columns rows colors chars-per-pixel */
"28 28 5 1 ",
"  c #080000",
". c #B97371",
"X c #CF9C9B",
"o c #E3C6C5",
"O c None",
/* pixels */
"OOOOOOOOOOO       OOOOOOOOOO",
"OOOOOOOOO          OOOOOOOOO",
"OOOOOOOO   .XXXXX.  OOOOOOOO",
"OOOOOOO  .XXXXXXXX.  OOOOOOO",
"OOOOOO  XXooXXXXXXX  OOOOOOO",
"OOOOOO  XoooXXXXXXX  OOOOOOO",
"OOOOOO  Xoo Xoooooo  OOOOOOO",
"OOOOOO   o XooooooX  OOOOOOO",
"OOOOOOO     XXoooo   OOOOOOO",
"OOOOOOOO     Xooo .  OOOOOOO",
"OOOOOOOOOOO  XXX .  OOOOOOOO",
"OOOOOOOOOOOO       OOOOOOOOO",
"OOOOOOOOOOOOO     OOOOOOOOOO",
"OOOOOOOOOOOOOOOOOOOOOOOOOOOO",
"OOOOOOOOOOOOOOOOOOOOOOOOOOOO",
"OOOOOOOOOOOOOOOOOOOOOOOOOOOO",
"OOOOOOOOOOOOOOOOOOOOOOOOOOOO",
"OOOOOOOOOOOOOOOOOOOOOOOOOOOO",
"OOOOOOOOOOOOOOOOOOOOOOOOOOOO",
"OOOOOOOOOOOOOOOOOOOOOOOOOOOO",
"OOOOOOOOOOOOOOOOOOOOOOOOOOOO",
"OOOOOOOOOOOOOOOOOOOOOOOOOOOO",
"OOOOOOOOOOOOOOOOOOOOOOOOOOOO",
"OOOOOOOOOOOOOOOOOOOOOOOOOOOO",
"OOOOOOOOOOOOOOOOOOOOOOOOOOOO",
"OOOOOOOOOOOOOOOOOOOOOOOOOOOO",
"OOOOOOOOOOOOOOOOOOOOOOOOOOOO",
"OOOOOOOOOOOOOOOOOOOOOOOOOOOO"
};
