/* XPM */
static char *result[] = {
/* columns rows colors chars-per-pixel */
"28 28 5 1 ",
"  c #080000",
". c #B97371",
"X c #CF9C9B",
"o c #E3C6C5",
"O c None",
/* pixels */
"OOOOOOOOOOO       OOOOOOOOOO",
"OOOOOOOOOO          OOOOOOOO",
"OOOOOOOOO  .XXXXX.   OOOOOOO",
"OOOOOOOO  .XXXXXXXX.  OOOOOO",
"OOOOOOOO  XXXXXXXooXX  OOOOO",
"OOOOOOOO  XXXXXXXoooX  OOOOO",
"OOOOOOOO  ooooooX ooX  OOOOO",
"OOOOOOOO  XooooooX o   OOOOO",
"OOOOOOOO   ooooXX     OOOOOO",
"OOOOOOOO  . oooX     OOOOOOO",
"OOOOOOOOO  . XXX  OOOOOOOOOO",
"OOOOOOOOOO       OOOOOOOOOOO",
"OOOOOOOOOOO     OOOOOOOOOOOO",
"OOOOOOOOOOOOOOOOOOOOOOOOOOOO",
"OOOOOOOOOOOOOOOOOOOOOOOOOOOO",
"OOOOOOOOOOOOOOOOOOOOOOOOOOOO",
"OOOOOOOOOOOOOOOOOOOOOOOOOOOO",
"OOOOOOOOOOOOOOOOOOOOOOOOOOOO",
"OOOOOOOOOOOOOOOOOOOOOOOOOOOO",
"OOOOOOOOOOOOOOOOOOOOOOOOOOOO",
"OOOOOOOOOOOOOOOOOOOOOOOOOOOO",
"OOOOOOOOOOOOOOOOOOOOOOOOOOOO",
"OOOOOOOOOOOOOOOOOOOOOOOOOOOO",
"OOOOOOOOOOOOOOOOOOOOOOOOOOOO",
"OOOOOOOOOOOOOOOOOOOOOOOOOOOO",
"OOOOOOOOOOOOOOOOOOOOOOOOOOOO",
"OOOOOOOOOOOOOOOOOOOOOOOOOOOO",
"OOOOOOOOOOOOOOOOOOOOOOOOOOOO"
};
