/* XPM */
static char *result[] = {
/* columns rows colors chars-per-pixel */
"28 28 5 1 ",
"  c #080000",
". c #B97371",
"X c #CF9C9B",
"o c #E3C6C5",
"O c None",
/* pixels */
"OOOOOOOO          OOOOOOOOOO",
"OOOOOO             OOOOOOOOO",
"OOOOO   X...XXXXX.  OOOOOOOO",
"OOOOO  XXXXXXXXXXX.  OOOOOOO",
"OOOOO  XXoooXXXXXXX  OOOOOOO",
"OOOOO   oooXXXXXXXX  OOOOOOO",
"OOOOOO     XXoooooX  OOOOOOO",
"OOOOOOO    .Xoooooo   OOOOOO",
"OOOOOOOOOO  .XXXoooo  OOOOOO",
"OOOOOOOOO  .   .Xooo  OOOOOO",
"OOOOOOOO  ....  .XX.  OOOOOO",
"OOOOOOOO              OOOOOO",
"OOOOOOOOO     O      OOOOOOO",
"OOOOOOOOOOOOOOOOOOOOOOOOOOOO",
"OOOOOOOOOOOOOOOOOOOOOOOOOOOO",
"OOOOOOOOOOOOOOOOOOOOOOOOOOOO",
"OOOOOOOOOOOOOOOOOOOOOOOOOOOO",
"OOOOOOOOOOOOOOOOOOOOOOOOOOOO",
"OOOOOOOOOOOOOOOOOOOOOOOOOOOO",
"OOOOOOOOOOOOOOOOOOOOOOOOOOOO",
"OOOOOOOOOOOOOOOOOOOOOOOOOOOO",
"OOOOOOOOOOOOOOOOOOOOOOOOOOOO",
"OOOOOOOOOOOOOOOOOOOOOOOOOOOO",
"OOOOOOOOOOOOOOOOOOOOOOOOOOOO",
"OOOOOOOOOOOOOOOOOOOOOOOOOOOO",
"OOOOOOOOOOOOOOOOOOOOOOOOOOOO",
"OOOOOOOOOOOOOOOOOOOOOOOOOOOO",
"OOOOOOOOOOOOOOOOOOOOOOOOOOOO"
};
