/* XPM */
static char *result[] = {
/* columns rows colors chars-per-pixel */
"28 28 5 1 ",
"  c #080000",
". c #B97371",
"X c #CF9C9B",
"o c #E3C6C5",
"O c None",
/* pixels */
"OOOOOOOOOO          OOOOOOOO",
"OOOOOOOOO             OOOOOO",
"OOOOOOOO  .XXXXX...X   OOOOO",
"OOOOOOO  .XXXXXXXXXXX  OOOOO",
"OOOOOOO  XXXXXXXoooXX  OOOOO",
"OOOOOOO  XXXXXXXXooo   OOOOO",
"OOOOOOO  XoooooXX     OOOOOO",
"OOOOOO   ooooooX.    OOOOOOO",
"OOOOOO  ooooXXX.  OOOOOOOOOO",
"OOOOOO  oooX.   .  OOOOOOOOO",
"OOOOOO  .XX.  ....  OOOOOOOO",
"OOOOOO              OOOOOOOO",
"OOOOOOO      O     OOOOOOOOO",
"OOOOOOOOOOOOOOOOOOOOOOOOOOOO",
"OOOOOOOOOOOOOOOOOOOOOOOOOOOO",
"OOOOOOOOOOOOOOOOOOOOOOOOOOOO",
"OOOOOOOOOOOOOOOOOOOOOOOOOOOO",
"OOOOOOOOOOOOOOOOOOOOOOOOOOOO",
"OOOOOOOOOOOOOOOOOOOOOOOOOOOO",
"OOOOOOOOOOOOOOOOOOOOOOOOOOOO",
"OOOOOOOOOOOOOOOOOOOOOOOOOOOO",
"OOOOOOOOOOOOOOOOOOOOOOOOOOOO",
"OOOOOOOOOOOOOOOOOOOOOOOOOOOO",
"OOOOOOOOOOOOOOOOOOOOOOOOOOOO",
"OOOOOOOOOOOOOOOOOOOOOOOOOOOO",
"OOOOOOOOOOOOOOOOOOOOOOOOOOOO",
"OOOOOOOOOOOOOOOOOOOOOOOOOOOO",
"OOOOOOOOOOOOOOOOOOOOOOOOOOOO"
};
