/* XPM */
static char *result[] = {
/* columns rows colors chars-per-pixel */
"28 28 5 1 ",
"  c #080000",
". c #B97371",
"X c #CF9C9B",
"o c #E3C6C5",
"O c None",
/* pixels */
"OOOOOOOOO         OOOOOOOOOO",
"OOOOOOOO            OOOOOOOO",
"OOOOOOO  ..XXXXXX.   OOOOOOO",
"OOOOOO  XoXXXXXXXX.X  OOOOOO",
"OOOOO  XooXXXXXXXXooX  OOOOO",
"OOOOO  oooXXXXXXXXooo  OOOOO",
"OOOOO  oo.XXXXooXX o   OOOOO",
"OOOOOO XX XXXooooX    OOOOOO",
"OOOOOO     .X.oooo   OOOOOOO",
"OOOOOOO     . oXoo  OOOOOOOO",
"OOOOOOOOOO    .ooo  OOOOOOOO",
"OOOOOOOOOOO   oooo  OOOOOOOO",
"OOOOOOOOOOOO  ooo  OOOOOOOOO",
"OOOOOOOOOOOO       OOOOOOOOO",
"OOOOOOOOOOOOO     OOOOOOOOOO",
"OOOOOOOOOOOOOOOOOOOOOOOOOOOO",
"OOOOOOOOOOOOOOOOOOOOOOOOOOOO",
"OOOOOOOOOOOOOOOOOOOOOOOOOOOO",
"OOOOOOOOOOOOOOOOOOOOOOOOOOOO",
"OOOOOOOOOOOOOOOOOOOOOOOOOOOO",
"OOOOOOOOOOOOOOOOOOOOOOOOOOOO",
"OOOOOOOOOOOOOOOOOOOOOOOOOOOO",
"OOOOOOOOOOOOOOOOOOOOOOOOOOOO",
"OOOOOOOOOOOOOOOOOOOOOOOOOOOO",
"OOOOOOOOOOOOOOOOOOOOOOOOOOOO",
"OOOOOOOOOOOOOOOOOOOOOOOOOOOO",
"OOOOOOOOOOOOOOOOOOOOOOOOOOOO",
"OOOOOOOOOOOOOOOOOOOOOOOOOOOO"
};
