/* XPM */
static char *result[] = {
/* columns rows colors chars-per-pixel */
"28 28 5 1 ",
"  c #080000",
". c #B97371",
"X c #CF9C9B",
"o c #E3C6C5",
"O c None",
/* pixels */
"OOOOOOOOOO         OOOOOOOOO",
"OOOOOOOO            OOOOOOOO",
"OOOOOOO   .XXXXXX..  OOOOOOO",
"OOOOOO  X.XXXXXXXXoX  OOOOOO",
"OOOOO  XooXXXXXXXXooX  OOOOO",
"OOOOO  oooXXXXXXXXooo  OOOOO",
"OOOOO   o XXooXXXX.oo  OOOOO",
"OOOOOO    XooooXXX XX OOOOOO",
"OOOOOOO   oooo.X.     OOOOOO",
"OOOOOOOO  ooXo .     OOOOOOO",
"OOOOOOOO  ooo.    OOOOOOOOOO",
"OOOOOOOO  oooo   OOOOOOOOOOO",
"OOOOOOOOO  ooo  OOOOOOOOOOOO",
"OOOOOOOOO       OOOOOOOOOOOO",
"OOOOOOOOOO     OOOOOOOOOOOOO",
"OOOOOOOOOOOOOOOOOOOOOOOOOOOO",
"OOOOOOOOOOOOOOOOOOOOOOOOOOOO",
"OOOOOOOOOOOOOOOOOOOOOOOOOOOO",
"OOOOOOOOOOOOOOOOOOOOOOOOOOOO",
"OOOOOOOOOOOOOOOOOOOOOOOOOOOO",
"OOOOOOOOOOOOOOOOOOOOOOOOOOOO",
"OOOOOOOOOOOOOOOOOOOOOOOOOOOO",
"OOOOOOOOOOOOOOOOOOOOOOOOOOOO",
"OOOOOOOOOOOOOOOOOOOOOOOOOOOO",
"OOOOOOOOOOOOOOOOOOOOOOOOOOOO",
"OOOOOOOOOOOOOOOOOOOOOOOOOOOO",
"OOOOOOOOOOOOOOOOOOOOOOOOOOOO",
"OOOOOOOOOOOOOOOOOOOOOOOOOOOO"
};
