/* XPM */
static char *result[] = {
/* columns rows colors chars-per-pixel */
"28 28 5 1 ",
"  c #080000",
". c #B97371",
"X c #CF9C9B",
"o c #E3C6C5",
"O c None",
/* pixels */
"OOOO  OOOOOOOOOOOOOOOO  OOOO",
"O   XX  OOOOOOOOOOOO  Xo   O",
"O  XoooX OOOOOOOOOO XoooX  O",
"O  XXooooXooooooooXooooXX  O",
"OO  .XooooooooooooooooX.  OO",
"OOO  .XooooooooooooooX.  OOO",
"OOOO  .XXooooooooooXX.  OOOO",
"OOOOO   .XooooooooX.   OOOOO",
"OOOOOO   XooooooooX   OOOOOO",
"OOOOOOO  XooooooooX  OOOOOOO",
"OOOOOOO  XoooXXoooX  OOOOOOO",
"OOOOOOO  XooX  XooX  OOOOOOO",
"OOOOOOOO  ooX  Xoo  OOOOOOOO",
"OOOOOOOO  XoX  XoX  OOOOOOOO",
"OOOOOOOO   XX  XX   OOOOOOOO",
"OOOOOOOOO          OOOOOOOOO",
"OOOOOOOOOO   OO   OOOOOOOOOO",
"OOOOOOOOOOOOOOOOOOOOOOOOOOOO",
"OOOOOOOOOOOOOOOOOOOOOOOOOOOO",
"OOOOOOOOOOOOOOOOOOOOOOOOOOOO",
"OOOOOOOOOOOOOOOOOOOOOOOOOOOO",
"OOOOOOOOOOOOOOOOOOOOOOOOOOOO",
"OOOOOOOOOOOOOOOOOOOOOOOOOOOO",
"OOOOOOOOOOOOOOOOOOOOOOOOOOOO",
"OOOOOOOOOOOOOOOOOOOOOOOOOOOO",
"OOOOOOOOOOOOOOOOOOOOOOOOOOOO",
"OOOOOOOOOOOOOOOOOOOOOOOOOOOO",
"OOOOOOOOOOOOOOOOOOOOOOOOOOOO"
};
