/* XPM */
static char *result[] = {
/* columns rows colors chars-per-pixel */
"18 18 9 1 ",
"  c #ADBD08",
". c #AEBE08",
"X c #B3BF0D",
"o c #D1BE32",
"O c #B5CE08",
"+ c #C6C724",
"@ c #DEBD42",
"# c #E2C146",
"$ c #FFDE63",
/* pixels */
"$$$@+X.OOOOOOOOOOO",
"$$$$#o   OOOOOOOOO",
"$$$@  OOOOOOOOOOOO",
"$$@ OOOOOOOOOOOOOO",
"$$$@  OOOOOOOOOOOO",
"$$$$@   OOOOOOOOOO",
"$$$@@ OOOOOOOOOOOO",
"$$@ OOOOOOOOOOOOOO",
"$$$@  OOOOOOOOOOOO",
"$$$@     OOOOOOOOO",
"$$$$@ OOOOOOOOOOOO",
"$$$$$@  OOOOOOOOOO",
"$$$$@ OOOOOOOOOOOO",
"$$$$$@  OOOOOOOOOO",
"$$$$@    OOOOOOOOO",
"$$$@ OOOOOOOOOOOOO",
"$$@     OOOOOOOOOO",
"$$$@   OOOOOOOOOOO"
};
