/* XPM */
static char *result[] = {
/* columns rows colors chars-per-pixel */
"42 42 23 1 ",
"  c black",
". c #070001",
"X c #21100E",
"o c #371613",
"O c #491A16",
"+ c #5F1513",
"@ c #581C18",
"# c #671A17",
"$ c #6D1D1A",
"% c #54211C",
"& c #74221D",
"* c #492D24",
"= c #642B23",
"- c #762421",
"; c #782624",
": c #6E3128",
"> c #613C2F",
", c #7B392F",
"< c #704436",
"1 c #704536",
"2 c #835140",
"3 c #895849",
"4 c #8E5E52",
/* pixels */
".XXXXooOOO@$;;$;3,&&2222222<<*2<<$$:>>>*>>",
" XXXXooOOO@$;;;-2222222242<<<*2<$$:1>>*>>1",
".XXXXooOO@@$;;-&22,&&&2<422<<%2$$:1>>*>>11",
".XXXXooOO@@$;;-&&&&&,22222<2<+&$:11>*>>111",
" XXXXooOO@@$;;-&&&&,2222222<<+&:<1>*>11111",
".XXXXooOO@@$;;-&&,22222222<2<+,<<>*><<<<<$",
".XXXXooOO@@$;;-&&22222222<2<<%2<>*><<<<<$$",
".XXXXooOO@@$;;-&,222222222:$$*2>*><<<<<$$:",
".XXXXooOO@@$;;-&22222222,$&$$*<*22222&&&&2",
" XXXXooOO@@$;;-&22222,&&&&$$=*******++++%*",
" XXXXooOO@@$;;-&,,&&,&&,$$$$#+$<<<<<**%*<<",
".XXXXooOO@@$;;-&&&&&&&,<2<<<=&$<<<<<<<*<<<",
".XXXXooOOO@$;-&&&&&,2222<2<=$&:2<2<<<<<<2<",
".XXXXooOOO@$;-&&&&,2222<<<=$&&2<2<2<2<<<<&",
".XXXXooOOO@$;-&&&,222222<=$&&&2222<2<2<2&&",
".XXXXooOOO@$;-&&&&&&222<=$&&&,222222,$22&,",
".XXXXooOOO@$;;-&&&&&,&$=$&&&&,22222,&&22,2",
".XXXXooOOO@$;;-&&&&&&&#$&,&&&&&2222&&&2222",
".XXXXooOOO@$;;-&&&&&&#$&,,&&&&,222,&&,222&",
".XXXXooOOO@$;;-&&&&&#&&,,&&&,2222,&&&222,&",
".XXXXooOOO@$;;-&&&&$&&,,&&&,2222,&&&,222&&",
" XXXXooOO@@$;;-&&&$&&,,&&&,222,&&&&&222,&&",
".XXXXooOOO@$;;-&&$&&&&&&&,22,&&&&&,222,&&,",
". XXXooOOO@$;;-&&&&&&&&&&&&&&&&&&&&&&&&&&,",
" XXXXooOOO@$;-&&&&&&&&&&&&&&&&&&&&&&&&&&&&",
".XXXXooOOO@$;-#--------------&&&&---------",
" XXXXooOOO@@$#;;;;;;;;;;;;;;;----;;;;;;;;;",
". XXooOOOOO@O$;$$$$;&$;;;;;;;;;;;;;;;;;;;;",
" X  XoooOooO@@$$$$$$$$$$$$$$$$$$$$$$$$$$$$",
"           OO@@@@@@@@@@@@@@@@@@@@@@@@@@@@@",
"       oOoXoOOO@@@@@@@@@@@@O@OO@@@@@@@@@@@",
".  X XXooO OOOOOOOOOOOOOOOOOOOOOOOOO@OOOOO",
" XXoXooooO oOOOOOOOOOOOOOOOOOOOOOOOOOOOOOO",
". XXoXXXXo oooooooOOooooOoOoooooOooooooooo",
".XXoXXXXoX XXooooooooooooooooooooooooooooo",
".XXXXXXoX  XoXXXXXXXXXXXXXXXXXXXXXXXXXXXXX",
".XXXXXXXX   XXXXXXXXXXXXXXXXXXXXXXXXXXXXXX",
". XXXXXX   X XXXXXXXXXXXXXXXXXXXXXXXXXXXXX",
" XXXX X X   XXXXXXXXXXXXXXXXXXXXXXXXXXXXXX",
".XXXXX X   X X X XXXXXXXXXXXXXX XXXXXXXXXX",
" XX X X     X XXXXX   XXXXXXXX   XXXXX XXX",
"                                          "
};
