/* XPM */
static char *result[] = {
/* columns rows colors chars-per-pixel */
"42 42 23 1 ",
"  c black",
". c #070001",
"X c #21100E",
"o c #371613",
"O c #491A16",
"+ c #5F1513",
"@ c #581C18",
"# c #671A17",
"$ c #6D1D1A",
"% c #54211C",
"& c #74221D",
"* c #492D24",
"= c #642B23",
"- c #762421",
"; c #782624",
": c #6E3128",
"> c #613C2F",
", c #7B392F",
"< c #704436",
"1 c #704536",
"2 c #835140",
"3 c #895849",
"4 c #8E5E52",
/* pixels */
"                                          ",
"XXX XXXXX   XXXXXXXX   XXXXX X     X X XX ",
"XXXXXXXXXX XXXXXXXXXXXXXX X X X   X XXXXX.",
"XXXXXXXXXXXXXXXXXXXXXXXXXXXXXX   X X XXXX ",
"XXXXXXXXXXXXXXXXXXXXXXXXXXXXX X   XXXXXX .",
"XXXXXXXXXXXXXXXXXXXXXXXXXXXXXX   XXXXXXXX.",
"XXXXXXXXXXXXXXXXXXXXXXXXXXXXXoX  XoXXXXXX.",
"oooooooooooooooooooooooooooooXX XoXXXXoXX.",
"oooooooooOoooooOoOooooOOooooooo oXXXXoXX .",
"OOOOOOOOOOOOOOOOOOOOOOOOOOOOOOo OooooXoXX ",
"OOOOO@OOOOOOOOOOOOOOOOOOOOOOOOO OooXX X  .",
"@@@@@@@@@@@OO@O@@@@@@@@@@@@OOOoXoOo       ",
"@@@@@@@@@@@@@@@@@@@@@@@@@@@@@OO           ",
"$$$$$$$$$$$$$$$$$$$$$$$$$$$$@@OooOoooX  X ",
";;;;;;;;;;;;;;;;;;;;$&;$$$$;$O@OOOOOooXX .",
";;;;;;;;;----;;;;;;;;;;;;;;;#$@@OOOooXXXX ",
"---------&&&&--------------#-;$@OOOooXXXX.",
"&&&&&&&&&&&&&&&&&&&&&&&&&&&&-;$@OOOooXXXX ",
",&&&&&&&&&&&&&&&&&&&&&&&&&&-;;$@OOOooXXX .",
",&&,222,&&&&&,22,&&&&&&&$&&-;;$@OOOooXXXX.",
"&&,222&&&&&,222,&&&,,&&$&&&-;;$@@OOooXXXX ",
"&&222,&&&,2222,&&&,,&&$&&&&-;;$@OOOooXXXX.",
"&,222&&&,2222,&&&,,&&#&&&&&-;;$@OOOooXXXX.",
"&222,&&,222,&&&&,,&$#&&&&&&-;;$@OOOooXXXX.",
"2222&&&2222&&&&&,&$#&&&&&&&-;;$@OOOooXXXX.",
"2,22&&,22222,&&&&$=$&,&&&&&-;;$@OOOooXXXX.",
",&22$,222222,&&&$=<222&&&&&&-;$@OOOooXXXX.",
"&&2<2<2<2222&&&$=<222222,&&&-;$@OOOooXXXX.",
"&<<<<2<2<2<2&&$=<<<2222,&&&&-;$@OOOooXXXX.",
"<2<<<<<<2<2:&$=<2<2222,&&&&&-;$@OOOooXXXX.",
"<<<*<<<<<<<$&=<<<2<,&&&&&&&-;;$@@OOooXXXX.",
"<<*%**<<<<<$+#$$$$,&&,&&,,&-;;$@@OOooXXXX ",
"*%++++*******=$$&&&&,22222&-;;$@@OOooXXXX ",
"2&&&&22222*<*$$&$,22222222&-;;$@@OOooXXXX.",
":$$<<<<<>*>2*$$:222222222,&-;;$@@OOooXXXX.",
"$$<<<<<>*><2%<<2<22222222&&-;;$@@OOooXXXX.",
"$<<<<<>*><<,+<2<22222222,&&-;;$@@OOooXXXX.",
"11111>*>1<:&+<<2222222,&&&&-;;$@@OOooXXXX ",
"111>>*>11:$&+<2<22222,&&&&&-;;$@@OOooXXXX.",
"11>>*>>1:$$2%<<224<2&&&,22&-;;$@@OOooXXXX.",
"1>>*>>1:$$<2*<<<2422222222-;;;$@OOOooXXXX ",
">>*>>>:$$<<2*<<2222222&&,3;$;;$@OOOooXXXX."
};
