/* XPM */
static char *result[] = {
/* columns rows colors chars-per-pixel */
"18 18 20 1 ",
"  c #ADBD08",
". c #ADBF08",
"X c #AEBF08",
"o c #AEBF09",
"O c #AFBF09",
"+ c #AFC008",
"@ c #B0C109",
"# c #B1C508",
"$ c #B1C409",
"% c #B1C608",
"& c #B3C909",
"* c #B4C909",
"= c #B4CC08",
"- c #B4CD08",
"; c #B5CD08",
": c #B5CE08",
"> c #B6CE09",
", c #DEBD42",
"< c #DFBE43",
"1 c #FFDE63",
/* pixels */
"::::::::::=$@o,111",
":::::::::;;%%.,111",
"::::::::::::O ,111",
":::::::::-:>&O<111",
"::::::::::::*X,111",
"::::::::::%#+ ,111",
":::::::::::: ,1111",
":::::::::   ,11111",
"::::::::: ,1111111",
":::::::::: ,111111",
": :: ::  : ,111111",
":    : ,,  ,111111",
": ,, : 11, ,111111",
"   ,, ,111,1111111",
",,,11,111111111111",
"111111111111111111",
"111111111111111111",
"111111111111111111"
};
