/* XPM */
static char *result[] = {
/* columns rows colors chars-per-pixel */
"42 42 6 1 ",
"  c #39231B",
". c #492D24",
"X c #613C2F",
"o c #683F33",
"O c #734136",
"+ c #734636",
/* pixels */
" ..XXOOOOOOOoOOOOOOOOOOOOOOOOOOOOOOOOOOOOO",
" ...XOOOOOOOOOOOOOOOOOOOOOOOOOOOOOOOOOOOOO",
" ..XXOOOOOOOOOOOOOOOOOOOOOOOOOOOOOOOOOOOOO",
" ...XOOOOOOOoOOOOOOOOOOOOOOOOOOOOOOOOOOOOO",
" ..XXOOOOOOOoOOOOOOO+OOOOOOOOOOOOOOOOOOOOO",
" ...XXOOOOOOoOOOOOOO+OOOOOOOOOOOOOOOOOOOOO",
" ..XXOOOOOOooOOOOOOOOOOOOOOOOOOOOOOOOOOOOO",
" ...XXOOOOOOoOOOOOOOOOOOOOOOOOOOOOOOOOOOOO",
" ..XXXOOOOOOoOOOOOOOOOOOOOOOOOOOOOOOOOOOOO",
" ...XXOOOOOooOOOOOOOOOOOOOOOOOOOOOOOOOOOOO",
" ..XXXOOOOOoOOOOOOOOOOOOOOOOOOOOOOOOOOOOOO",
" ..XXOOOOOOOOOOOOOOOOOOOOOOOOOOOOOOOOOOOOO",
" ..XXOOOOOOOOOOOOOOOOOOOOOOOOOOOOOOOOOOOOO",
" ..XXOOOOOOOOOOOOOOOOOOOOOOOOOOOOOOOOOOOOO",
" ..XXOOOOOOOOOOOOOOOOOOOOOOOOOOOOOOOOOOOOO",
" ..XXOOOOOOOOOOOOOOOOOOOOOOOOOOOOOOOOOOOOO",
" ..XXOOOOOOOOOOOOOOOOOOOOOOOOOOOOOOOOOOOOO",
" ..XXOOOOOOOOOOOOOOOOOOOOOOOOOOOOOOOOOOOOO",
" ..XXOOOOOOOOOOOOOOOOOOOOOOOOOOOOOOOOOOOOO",
" ..XXOOOOOOOOOOOOOOOoOOOOOOOOOOOOOOOOOOOOO",
" ..XXOOOOOOOOOOOOOOOOOOOOOOOOOOOOOOOOOOOOO",
" ..XXXOOOOOOOOOOOOOOOOOOOOOOOOOOOOOOOOOOOO",
" ..XXOOOOOOOOOOOOOOOOOOOOOOOOOOOOOOOOOOOOO",
" ..XXXOOOOOOOOOOOOOOOOOOOOOOOOOOOOOOOOOOOO",
" ..XXOOOOOOOOOOOOOOOOOOOOOOOOOOOOOOOOOOOOO",
" ..XXXOOOOOOOOOOOOOOOOOOOOOOOOOOOOOOOOOOOO",
" ..XXOOOOOOOOOOOOOOOOOOOOOOOOOOOOOOOOOOOOO",
" ..XXXOOOOOOOOOOOOOOOOOOOOOOOOOOOOOOOOOOOO",
" ..XXOOOOOOOOOOOOOOOOOOOOOOOOOOOOOOOOOOOOO",
" .XXXXOOOOOOOOOOOOOOOOOOOOOOOOOOOOOOOOOOOO",
" ..XXOXOOOOOOOOOOOOOOOOOOOOOOOOOOOOOOOOOOO",
" ..X.XXXOOOOOOOOOOOOOOOOOOOOOOOOOOOOOOOOOO",
" .X..XXXOOOOOOOOOOOO+OOOOOOOOOOOOOOOOOOOOO",
" .....XXOOOOOOOOOOOO+OOOOOOOOOOOOOOOOOOOOO",
" .....XXOOOOOOOOOOOOOOOOOOOOOOOOOOOOOOOOOO",
" ....XXOXOXXOXOXOOOOOOOOOOOOOOOOOOOOOOOOXO",
" .X.X.XXOX.XXXXOXOOOOOOOOOOXOXOXOXOOXOOXOX",
" ..X.X.XXXX..XXXXXOXXOXOXXXXXXXXXXXXXXXXXX",
" .......XX...X.XXXXXOXXXXXXXXXXXXXXXXXX.X.",
" ......X.X..X.X.X.XXXXXXXX................",
" .........................................",
"                                          "
};
