/* XPM */
static char *result[] = {
/* columns rows colors chars-per-pixel */
"42 42 6 1 ",
"  c #39231B",
". c #492D24",
"X c #613C2F",
"o c #683F33",
"O c #734136",
"+ c #734636",
/* pixels */
"                                          ",
" .........................................",
" ....X...X..X.............................",
" ...X.....XXXXXXXXXXXXXXXXXXXXXX.X.X.X.X.X",
" ....X.....XXXXXXXXXXXXXXXXXXXXXXXXXXXXXXX",
" ...X.X..XXOXOXOXOXOXOOOOOOOOOOXXXXOXOOOOO",
" ....XXXXXXXOOOOOOOOOOOOOOOOOOOOOOOOOOOOOO",
" .X.XXOXXXXOOOOOOOOOOOOOOOOOOOOOOOOOOOOOOO",
" ..XXOXOOOOOOOOOOOOOOOOOOOOOOOOOOOOOOOOOOO",
" .XXXXOOOOOOOOOOOOOOOOOOOOOOOOOOOOOOOOOOOO",
" ...X.XOOOOOOOOOOOOOOOOOOOOOOOOOOOOOOOOOOO",
" ....XXOOOOOOOOOOOOOOOOOOOOOOOOooOOoOOOOOO",
" .X..XOOOOOOOOOOOOOOOOOOOOOOOOOOoooooooOOo",
" ..XXXXOOOOOOOOOOOOOOOOOOOOOOOOOOOOOOOOOOO",
" .X.XXOOOOOOOOOOOOOOOOOOOOOOOOOOOOOOOOOOOO",
" ..XXOXOOOOOOOOOOOOOOOOOOOOOOOOOOOOOOOOOOO",
" .XXXXOOOOOOOOOOOOOOOOOOOOOOOOOOOOOOOOOOOO",
" ..XXOOOOOOOOOOOOOOOOOOOOOOOOOOOOOOOOOOOOO",
" .XXOOOOOOOOOOOOOOOOOOOOOOOOOOOOOOOOOOOOOO",
" .XXXOOOOOOOOOOOOOOOOOOOOOOOOOOOOOOOOOOOOO",
" .XOXOOO++OOOOOOOOOOOOoOOOOOOOOOOOOO++OOOO",
" .XXOOOOOOOOOOOOOOOOOOOOOOOOOOOOOOOOOOOOOO",
" .XXXOOOOOOOOOOOOOOOOOOOOOOOOOOOOOOOOOOOOO",
" .XXOOOOOOOOOOOOOOOOOOOOOOOOOOOOOOOOOOOOOO",
" .XXXOOOOOOOOOOOOOOOOOOOOOOOOOOOOOOOOOOOOO",
" .XXXOOOOOOOOOOOOOOOOOOOOOOOOOOOOOOOOOOOOO",
" ..XXOOOOOOOOOOOOOOOOOOOOOOOOOOOOOOOOOOOOO",
" ..XXXOOOOOOOOOOOOOOOOOOOOOOOOOOOOOOOOOOOO",
" ..XXOOOOOOOOOOOOOOOOOOOOOOOOOOOOOOOOOOOOO",
" ..XXXOOOOOOOOOOOOOOOOOOOOOOOOOOOOOOOOOOOO",
" ..XXOOOOOOOOOOOOOOOOOOOOOOOOOOOOOOOOOOOOO",
" ..XXXOOOOOOOOOOOOOOOOOOOOOOOOOOOOOOOOOOOO",
" ..XXOOOOOOOOOOOOOOOOOOOOOOOOOOOOOOOOOOOOO",
" ..XXXOOOOOOOOOOOOOOOOOOOOOOOOOOOOOOOOOOOO",
" ..XXOOOOOOOOOOOOOOOOOOOOOOOOOOOOOOOOOOOOO",
" ..XXOOOOOOOOOOOOOOOOOOOOOOOOOOOOOOOOOOOOO",
" ..XXXOOOOOOOOOOOOOOOOOOOOOOOOOOOOOOOOOOOO",
" ..XXOOOOOOOOOOOOOOOOOOOOOOOOOOOOOOOOOOOOO",
" ..XXOOOOOOOOOOOOOOOOOOOOOOOOOOOOOOOOOOOOO",
" ...XXOOOOOOOOOOOOOOOOOOOOOOOOOOOOOOOOOOOO",
" ..XXOXOOOOOOOOOOOOOOOOOOOOOOOOOOOOOOOOOOO",
" ...XXOOOOOOOOOOOOOOOOOOOOOOOOOOOOOOOOOOOO"
};
