/* XPM */
static char *result[] = {
/* columns rows colors chars-per-pixel */
"130 19 6 1 ",
"  c #080000",
". c #362F2D",
"X c #534741",
"o c #736357",
"O c #998675",
"+ c None",
/* pixels */
"+++++         ++++++++++++++++++++++++++++++++++++++++++++++++++++++++++++++++++++++++++++++++++++++++++++++++++++++++++++++++++++",
"+++             ++++++++++++++++++++++++++++++++++++++++++++++++++++++++++++++++++++++++++++++++++++++++++++++++++++++++++++++++++",
"++   XoOOOOooX   +++++++++++++++++++++++++++++++++++++++++++++++++++++++++++++++++++++++++++++++++++++++++++++++++++++++++++++++++",
"+  XoOOOoooooooX  ++++++++++++++++++++++++++++++++++++++++++++++++++++++++++++++++++++++++++++++++++++++++++++++++++++++++++++++++",
"+  XXoooooooooXX                                                                                                               +++",
"  .   XXoooXX   .                                                                                                               ++",
"   oOO..XXX..OOo                                                                                                                 +",
"  XXXoOOoXoOOoXXX                                                                                                                +",
"      XXXXXXX                                                                                                                    +",
"  .             .                                                                                                                +",
"  X     . .     X                                                                                                                +",
"  .oX  .   .  Xo.                                                                                                                +",
"+  .OoXX . XXoO.                                                                                                                 +",
"++  ..XoXoXoX..                                                                                                                  +",
"+++    O O O                                                                                                                    ++",
"++++   o o o                                                                                                                   +++",
"+++++         ++++++++++++++++++++++++++++++++++++++++++++++++++++++++++++++++++++++++++++++++++++++++++++++++++++++++++++++++++++",
"+++++++     ++++++++++++++++++++++++++++++++++++++++++++++++++++++++++++++++++++++++++++++++++++++++++++++++++++++++++++++++++++++",
"++++++++++++++++++++++++++++++++++++++++++++++++++++++++++++++++++++++++++++++++++++++++++++++++++++++++++++++++++++++++++++++++++"
};
