/* XPM */
static char *result[] = {
/* columns rows colors chars-per-pixel */
"42 42 8 1 ",
"  c #080000",
". c #B97371",
"X c #68B2B4",
"o c #CF9C9B",
"O c #9ACCCD",
"+ c #E3C6C5",
"@ c white",
"# c None",
/* pixels */
"##########################################",
"##########################################",
"##########################################",
"##########################################",
"##########################################",
"##########################################",
"##########################################",
"#######################      #############",
"####################            ##########",
"##################      oooo      ########",
"#################    o++o o+++o    #######",
"################   o+++Xoo o++++o   ######",
"##############    o+++OO oo +++++o  ######",
"############     o++++OO  +o++++++o  #####",
"##########       ++++OOO  +++++++++   ####",
"#######     oo  o++++OOX  +++++++++o  ####",
"######     oo.  +++++OO+  ++++++++++  ####",
"#####   .  ++   +++++XO+ o++++++++++o  ###",
"#####  ..  ++  o+++++   o+++++++++++o  ###",
"####       ++  o+++++ @  o+++++++++++  ###",
"###  o++o  ++  o+++++ @   +++++++++++  ###",
"###  ++++  ++  o+++++ @   +++++++++++  ###",
"###  +++o  oo  .o++++ @   +++++++++++  ###",
"###  oooo.  .   o++++ @  o++++++++++o  ###",
"###             ooo++   oo++++++++oo  ####",
"####            .ooooooo..o+++++ooo.  ####",
"####  .oo  ooo   ooooooo  ooooooooo   ####",
"####  .oo  ....  .oooooO  o. ooooo.  #####",
"#####  ..  .....  .oooOO .o .oooo.  ######",
"######       ....  .oOOO . .oooo.   ######",
"#######              OOOX.oooo.    #######",
"#############           OOo.      ########",
"####################            ##########",
"######################       #############",
"##########################################",
"##########################################",
"##########################################",
"##########################################",
"##########################################",
"##########################################",
"##########################################",
"##########################################"
};
