/* XPM */
static char *result[] = {
/* columns rows colors chars-per-pixel */
"64 42 17 1 ",
"  c #1A0F09",
". c #191912",
"X c #2D0F0D",
"o c #2F110E",
"O c #32130F",
"+ c #3B1611",
"@ c #231C20",
"# c #352B32",
"$ c #401513",
"% c #431814",
"& c #471B15",
"* c #542019",
"= c #413038",
"- c #4E3F49",
"; c #65505D",
": c #866B7B",
"> c None",
/* pixels */
">>>>>>>>>>>>>>>>>>..>>>>>>>>>>>>>>>>>>>>>>>>>..>>>>>>>>>>>>>>>>>",
">>>>>>>>>>>>>>>>>.;.>>>>>>>>>>>>>>>>>>>>>>>>>.;.>>>>>>>>>>>>>>>>",
">>>>>>>>>>>>>>>>.;-.>>>>>>>>>>>>>>>>>>>>>>>>>.-;.>>>>>>>>>>>>>>>",
">>>>>>>>>>>>>>..;-#.>>>>>>>@@@@@@@@@@@>>>>>>>.#-;..>>>>>>>>>>>>>",
">>>>>>>>>>>....--#.>>>>@@@@::-;;-;;-::@@@@>>>>.#--....>>>>>>>>>>",
">>>>>>>>>>.-;##.##.>.@@:-;;--.......--;;-:@@.>.##.##;-.>>>>>>>>>",
">>>>>>>>>.-;-;;#....--;-;-...-------...-;-;--....#;;-;-.>>>>>>>>",
">>>>>>....-;-;--#@@--@@@..--;;;;-;;;;--..@@@--@@#--;-;-....>>>>>",
">>>>..---.#--;---#@..##.--;;::;-;;;:;;;;-.##..@#---;--#.---..>>>",
">>>.-;;;;..##----#@##..--;::;;;-;;;;;;;;;-..##@#----##..;;;;-.>>",
">>.-;;--;-...#####@...#--;;;;;-;;;;;;;;;;;#...@#####...-;--;;-.>",
">>.-.#;;-;-@.-;#@.@##@#---;;;;-;;;-;;;;-;;#@##@.@#;-.@-;-;;#@-.>",
">>.@;;-----#.#--;-#.#@------;;-;;--;;----;-@#.#-;--#.#-----;;@.>",
">>.;;-..-#.#.@##---.#.--;;;;##-;-----;;;;--.#.---##@.#@#-..-;;.>",
">>.;-...-;.#..@@###...#;;:::;;#-;;-;:;;;;;#...###@@..#@;-...-;.>",
">>>....;;@##.;..@@@.X.#-;;;;;;;#;;#;;;;;;;#.X.@@@..;.##@;;....>>",
">>>>.#;.###.----...XX.##-;;;---#--#---;;--#.XX...----.###.;#.>>>",
">>>.;#.;...........XX.#########@@@#########.XX...........;.#;.>>",
">>>.;#.#.>>..####..XX.#@......@@#@@......@#.XX..####..>>.#.#;.>>",
">>>.#.>.>>>>.-;;-=.$$.-#......@#.#@......#-.$$.=-;;-.>>>>.>.#.>>",
">>>>.>>>>>>>.=---=.$$.##......#...#......##.$$.=---=.>>>>>>>.>>>",
">>>>>>>>>>>>..===@.$$X.-#....#.....#....#-.X$$.@===..>>>>>>>>>>>",
">>>>>>>>>>>.=......X$$X.-;;-#-.-#-.-#-;;-.X$$X......=.>>>>>>>>>>",
">>>>>>>>>>.=-====== $$$X.-###;-:-:-;###-.X$$$.======-=.>>>>>>>>>",
">>>>>>>>>>..=;;;--= X$$$X...#;-;-;-;#...X$$$X.=--;;;=..>>>>>>>>>",
">>>>>>>>>.=-.=---===.$$$$XXX.-#-#-#-.XXX$$$$.===---=.-=.>>>>>>>>",
">>>>>>>>.=-;-........$$$$$$$X..-.-..X$$$$$$$........-;-=.>>>>>>>",
">>>>>>>>.=--;;;;--==.o%%%%%%%o.....o%%%%%%%o.==--;;;;--=.>>>>>>>",
">>>>>>>>..=------...=.%%%%%%%%ooooo%%%%%%%%.#...------=..>>>>>>>",
">>>>>>>.#;.====..-##..%%%%%%%%%%%%%%%%%%%%%..##-..====.;#.>>>>>>",
">>>>>>>.#-;....--##..O&&&&&&&&&&&&&&&&&&&&&O..##--....;-#.>>>>>>",
">>>>>>>>.#-;;---##.@..&&&&&&&&&&&&&&&&&&&&&..@.##---;;-#.>>>>>>>",
">>>>>>>>>.#---###.@@@.O&&&&&&&&&&&&&&&&&&&O.@@@.###---#.>>>>>>>>",
">>>>>>>>>...###..@##...*******************...##@..###...>>>>>>>>",
">>>>>>>>>.@#...@##@..@.*******************.@..@##@...#@.>>>>>>>>",
">>>>>>>>>>.@@###@@.@@@.+*****************+.@@@.@@###@@.>>>>>>>>>",
">>>>>>>>>>>.@@@@..##@.......................@##..@@@@.>>>>>>>>>>",
">>>>>>>>>>>>....>....@@####-----------####@@....>....>>>>>>>>>>>",
">>>>>>>>>>>>>>>>>>>>.........................>>>>>>>>>>>>>>>>>>>",
">>>>>>>>>>>>>>>>>>>>>>>>>>>>>>>>>>>>>>>>>>>>>>>>>>>>>>>>>>>>>>>>",
">>>>>>>>>>>>>>>>>>>>>>>>>>>>>>>>>>>>>>>>>>>>>>>>>>>>>>>>>>>>>>>>",
">>>>>>>>>>>>>>>>>>>>>>>>>>>>>>>>>>>>>>>>>>>>>>>>>>>>>>>>>>>>>>>>"
};
