/* XPM */
static char *result[] = {
/* columns rows colors chars-per-pixel */
"42 64 15 1 ",
"  c black",
". c #1A0F09",
"X c #191912",
"o c #29191A",
"O c #231C20",
"+ c #342021",
"@ c #352B32",
"# c #482B2D",
"$ c #413038",
"% c #60393A",
"& c #4E3F49",
"* c #65505D",
"= c #8D4F52",
"- c #866B7B",
"; c None",
/* pixels */
";;;;;;;;;;;;;;;;;;;;;;;;;;;;;;;;;;;;;;;;;;",
";;;;;;;;;;;;;;;;;;;;;;;;;;;;;;;;;;;;;;;;;;",
";;;;;;;;; XXXXX ;;;;;;;;;;;;;;;;;;;;;;;;;;",
";;;;;;;; X&&O**X XXX ;;;;;;;;;;;;;;;;;;;;;",
";;;;;;;;X&*O**&XX**@X;;;;;;;;;;;;;;;;;;;;;",
";;;;;;; X**@*&XX@@@X ;;;;;;;;;;;;;;;;;;;;;",
";;;;;;;X&*&*&XXX*XX ;;;;;;;;;;;;;;;;;;;;;;",
";;;;;;;X&*&*&XX*X*@X;;;;;;;; XX ;;;;;;;;;;",
";;;;;; X&**&&&&*@XX ;;;;; XXX@@X ;;;;;;;;;",
";;;;; XXXX&*&@*O@X ;;;;; X$$X*&@XXX ;;;;;;",
";;;; X&&@XX&&OO@@X ;;; XX$&&$X*&@XOX ;;;;;",
";;;;X&**&@XO@@@@XXX ; X$X&*&&$X*&X@OX ;;;;",
";;;;X*&&&@XXXXXX&XXXXX$&$X&*&$X*&@XOOX;;;;",
";;; X@***&@&@OX*&X@&$XX$*$X*&$X&&@X@OX;;;;",
";;;XX@*&&&@*&@OX&X@*&$X$*&X*&$X&@@X@OX;;;;",
";; X&X@&&&@@&@OX&X@*&$X$*&X*&X&&@XO@OX;;;;",
"; X*&@X@&&@O*&@OXX@&&$X$&&X&&X&@@X@OX ;;;;",
" X*&@@XO@@@X&&@OXXX$$OX$&$X&X&@@XO@OXX;;;;",
"X*&@XXXOOOOO@&@OXXXXXXX$$$X$X@@XO@OX@X;;;;",
"XXXX  X&X@X@XXXXo++####XX$X$X@XOO@XO@X ;;;",
";;;;;X&&X@X@@@Xoo++######XXX@XXXOXXOOXX;;;",
";;;;;O&O@XXOOXXXXXXXX#######XX#XXXOOXOX;;;",
";;;; O*O@X@@&&@@@@@&@X%##%#######XXXXOX;;;",
";;;;O-&OX&***&**&@O@@&X%%%##%######+X@X;;;",
";;;;O&*X&***&***&@XXX@&X%%%%%##%###+X@X;;;",
";;;;O*&X***&&****@XXXX*&X%%%%%%%###+X@X;;;",
";;; O*X&****&****@XXXX*@X%%%%%%%%%#+X@X;;;",
";;;O-&X&****&***&@XXXX&@X%%%%%%%%%%+X&X;;;",
";;;O-&X******&-*&@XXXX@@@X%%%=#%%%%+X&X;;;",
";;;O&X&*-****&**&@XXX@&**&X%%%%%%%%+X&X;;;",
";;;O*X&****&&&&@@@OO@XX&&@XX%%%%%%%+X&X;;;",
";;;O*X&*****&&**&OO@XX&-*&&X%%%%%%#+X&X;;;",
";;;O&X&&*****&**&O@XXX@&&@XX#####oooX&X;;;",
";;;O*X&*&&****&@@OO@XX&-*&&X#####oooX&X;;;",
";;;O*X&***&&&&@*&@OO@XX&&@XX#%%%%%#+X&X;;;",
";;;O&X&*-****@**&@XXX@&**&X=#%%%%%%+X&X;;;",
";;;O-&X*-****@**&@XXXX@@@X%%%%%%%%%+X&X;;;",
";;;O-&X&*-**&*-**@XXXX&@X%%%%%%%%%%+X&X;;;",
";;; O*X&*-**&*-**@XXXX*@X%%%%%%%%%%+X@X;;;",
";;;;O*&X&**&&*-**@XXXX*&X%%%%%%%%%#+X@X;;;",
";;;;O&*X&&&&&***&@XXX@&X%%%%%%%%###+X@X;;;",
";;;;O-&OX&&&&&*&@@O@@&X%%%%%%##%###+X@X;;;",
";;;; O*O@X@@&&@@@@@&@X%%%%##%####XXXXOX;;;",
";;;;;O&O@XXOOXXXXXXXX#%##%##XX#XXXOOXOX;;;",
";;;;;X&&X@X@@@Xoo++######XXX$XXXOXXOOXX;;;",
"XXXX  X&X@X@XXXXo++####..$X$X@XOO@XO@X ;;;",
"X*&@XXXOOOOO@&@OXXXXXXX$$$X$X@@XO@OX@X;;;;",
" X*&@@XO@@@X&&@OXXX$$OX$&$X&X&@@XO@OXX;;;;",
"; X*&@X@&&@O*&@OXX@&&$X$&&X&&X&@@X@OX ;;;;",
";; X&X@&&&@@&@OX&X@*&$X$*&X*&X&&@XO@OX;;;;",
";;;XX@*&&&@*&@OX&X@*&$X$*&X*&$X&@@X@OX;;;;",
";;; X@***&@&@OX*&X@&$XX$*$X*&$X&&@X@OX;;;;",
";;;;X*&&&@XXXXXX&XXXXX$&$X&*&$X*&@XOOX;;;;",
";;;;X&**&@XO@@@@XXX ; X$X&*&&$X*&X@OX ;;;;",
";;;; X&&@XX&&XX@@X ;;; XX$&&$X*&@XOX ;;;;;",
";;;;; XXXX&*&@*O@X ;;;;; X$$X*&@XXX ;;;;;;",
";;;;;; X&**&&&&*@XX ;;;;; XXX@@X ;;;;;;;;;",
";;;;;;;X&*&*&XX*X*@X;;;;;;;; XX ;;;;;;;;;;",
";;;;;;;X&*&*&XXX*XX ;;;;;;;;;;;;;;;;;;;;;;",
";;;;;;; X**@*&XX@@@X ;;;;;;;;;;;;;;;;;;;;;",
";;;;;;;;X&*X**&XX**@X;;;;;;;;;;;;;;;;;;;;;",
";;;;;;;; X&&O**X XXX ;;;;;;;;;;;;;;;;;;;;;",
";;;;;;;;; XXXXX ;;;;;;;;;;;;;;;;;;;;;;;;;;",
";;;;;;;;;;;;;;;;;;;;;;;;;;;;;;;;;;;;;;;;;;"
};
