/* XPM */
static char *result[] = {
/* columns rows colors chars-per-pixel */
"42 64 14 1 ",
"  c #1A0F09",
". c #191912",
"X c #29191A",
"o c #231C20",
"O c #342021",
"+ c #352B32",
"@ c #482B2D",
"# c #413038",
"$ c #60393A",
"% c #4E3F49",
"& c #65505D",
"* c #8D4F52",
"= c #866B7B",
"- c None",
/* pixels */
"------------------------------------------",
"------------------------------------------",
"---------------------------.....----------",
"----------------------...-.&&o%%.---------",
"---------------------.+&&..%&&.&%.--------",
"----------------------.+++..%&+&&.--------",
"-----------------------..&...%&%&%.-------",
"-----------..---------.+&.&..%&%&%.-------",
"----------.++...-------..+&%%%%&&%.-------",
"-------...+%&.##.-------.+o&+%&%....------",
"------.o.+%&.#%%#..-----.++..%%..+%%.-----",
"-----.o+.%&.#%%&%.#.---...++++o.+%&&%.----",
"----.oo.+%&.#%&%.#%#.....%......+%%%&.----",
"----.o+.+%%.#%&.#&#..#%+.%&.o+%+%&&&+.----",
"----.o+.++%.#%&.%&#.#%&+.%.o+%&+%%%&+..---",
"----.o+o.+%%.%&.%&#.#%&+.%.o+%++%%%+.%.---",
"-----.o+.++%.%%.%%#.#%%+..o+%&o+%%+.+%&.--",
"----..o+o.++%.%.#%#.o##...o+%%.+++o.++%&.-",
"----.+.o+o.++.#.###.......o+%+ooooo...+%&.",
"----.+o.+oo.+.#.#  @@@@OOX....+.+.%.--....",
"---..oo..o...#...@@@@@@OOXX.+++.+.%%.-----",
"---.o.oo...@..@@$@@$@........oo..+o%o-----",
"---.o....@@@@$@@$$$$.+%+++++%%++.+o&o-----",
"---.+.O@@@$@@$$$$$$.%++o++%&%%%%%.o%=o----",
"---.+.O@@@$$$$$$$$.%+...+%&&&%%%%%.&%o----",
"---.+.O@$$$$$$$$$.%&....+&&=&%%&&%.%&o----",
"---.+.O$$$$$$$$$$.+&....+&&=&%&&=&%.&o----",
"---.%.O$$$$$$$$$$.+%....+&&=&%&&=&%.%=o---",
"---.%.O$$$$$$$$$.+++....+%&&+&&&&=&.%=o---",
"---.%.O$$$$$$@*.%&&%+...+%&&+&&&&=&%.%o---",
"---.%.O@$$$$$@..+%%..+oo+%&+%%%%&&&%.&o---",
"---.%.XXX@@@@@.%%&=%..+oo++%&&&&%%&%.&o---",
"---.%.XXX@@@@@..+%%+...+o%&&%&&&&&%%.%o---",
"---.%.O@$$$$$$.%%&=%..+oo%&&%%&&&&&%.&o---",
"---.%.O$$$$$$$..+%%..+oo+++%%%%&&&&%.&o---",
"---.%.O$$$$$$$$.%&&%+...+%&&%&&&&=&%.%o---",
"---.%.O$$$$@*$$$.+++....+%&=%&&&&&&.%=o---",
"---.%.O$$$$$$$$$$.+%....+%&&&%&&&&%.%=o---",
"---.+.O@$$$$$$$$$.+&....+&&&&%&&&&%.&o----",
"---.+.O@@@$$$$$$$.%&....+&&&&%%&&&.%&o----",
"---.+.O@@@$@@$$$$$.%+...+%&&&%&&&%.&%o----",
"---.+.O@@@@@@$@@$$$.%++o+%&&%&&&%.o%=o----",
"---.o....@@@@@@@$@@$.+%+++++%%++.+o&o-----",
"---.o.oo...@..@@@@@@@........oo..+o%o-----",
"---..oo..o...+...@@@@@@OOXX.+++.+.%%.-----",
"----.+o.+oo.+.#.#..@@@@OOX....+.+.%.--....",
"----.+.o+o.++.#.###.......o+%+ooooo...+%&.",
"----..o+o.++%.%.#%#.o##...o+%%.+++o.++%&.-",
"-----.o+.++%.%%.%%#.#%%+..o+%&o+%%+.+%&.--",
"----.o+o.+%%.%&.%&#.#%&+.%.o+%++%%%+.%.---",
"----.o+.++%.#%&.%&#.#%&+.%.o+%&+%%%&+..---",
"----.o+.+%%.#%&.#&#..#%+.%&.o+%+%&&&+.----",
"----.oo.+%&.#%&%.#%#.....%......+%%%&.----",
"-----.o+.%&.#%%&%.#.---...++++o.+%&&%.----",
"------.o.+%&.#%%#..-----.++oo%%..+%%.-----",
"-------...+%&.##.-------.+o&+%&%....------",
"----------.++...-------..+&%%%%&&%.-------",
"-----------..---------.+&.&..%&%&%.-------",
"-----------------------..&...%&%&%.-------",
"----------------------.+++..%&+&&.--------",
"---------------------.+&&..%&&o&%.--------",
"----------------------...-.&&o%%.---------",
"---------------------------.....----------",
"------------------------------------------"
};
