/* XPM */
static char *result[] = {
/* columns rows colors chars-per-pixel */
"64 42 18 1 ",
"  c black",
". c #1A0F09",
"X c #191912",
"o c #2D0F0D",
"O c #2F110E",
"+ c #32130F",
"@ c #3B1611",
"# c #231C20",
"$ c #352B32",
"% c #401513",
"& c #431814",
"* c #471B15",
"= c #542019",
"- c #413038",
"; c #4E3F49",
": c #65505D",
"> c #866B7B",
", c None",
/* pixels */
",,,,,,,,,,,,,,,,,,,,,,,,,,,,,,,,,,,,,,,,,,,,,,,,,,,,,,,,,,,,,,,,",
",,,,,,,,,,,,,,,,,,,,,,,,,,,,,,,,,,,,,,,,,,,,,,,,,,,,,,,,,,,,,,,,",
",,,,,,,,,,,,,,,,,,,,,,,,,,,,,,,,,,,,,,,,,,,,,,,,,,,,,,,,,,,,,,,,",
",,,,,,,,,,,,,,,,,, XXXXXXXXXXXXXXXXXXXXXXXXX ,,,,,,,,,,,,,,,,,,,",
",,,,,,,,,, XXXX XXXX##$$$$;;;;;;;;;;;$$$$##XXXX XXXX ,,,,,,,,,,,",
",,,,,,,,, X####XX$$#XXXXXXXXXXXXXXXXXXXXXXX#$$XX####X ,,,,,,,,,,",
",,,,,,,, X##$$$##X###X@=================@X###X##$$$##X ,,,,,,,,,",
",,,,,,,,X#$XXX#$$#XX#X===================X#XX#$$#XXX$#X,,,,,,,,,",
",,,,,,,,XXX$$$XX#$$XXX===================XXX$$#XX$$$XXX,,,,,,,,,",
",,,,,,, X$;;;$$$X###X+*******************+X###X$$$;;;$X ,,,,,,,,",
",,,,,, X$;::;;;$$X#XX*********************XX#X$$;;;::;$X ,,,,,,,",
",,,,,,X$;:XXXX;;$$XX+*********************+XX$$;;XXXX:;$X,,,,,,,",
",,,,,,X$:X----XX;$$XX&&&&&&&&&&&&&&&&&&&&&XX$$;XX----X:$X,,,,,,,",
",,,,,, XX-;;;;;;XXX$X&&&&&&&&OOOOO&&&&&&&&X-XXX;;;;;;-XX ,,,,,,,",
",,,,,,,X-;;::::;;--XO&&&&&&&OXXXXXO&&&&&&&OX--;;::::;;-X,,,,,,,,",
",,,,,,,X-;:;XXXXXXXX%%%%%%%oXX;X;XXo%%%%%%%XXXXXXXX;:;-X,,,,,,,,",
",,,,,,, X-;X-;;;---X%%%%oooX;$;$;$;Xooo%%%%X---;;;-X;-X ,,,,,,,,",
",,,,,,,, XX-:::;;-Xo%%%oXXX$:;:;:;:$XXXo%%%o.-;;:::-XX ,,,,,,,,,",
",,,,,,,,,X-;------X%%%oX;$$$:;>;>;:$$$;Xo%%%.------;-X,,,,,,,,,,",
",,,,,,,,, X-XXXXXXo%%oX;::;$;X;$;X;$;::;Xo%%oXXXXXX-X ,,,,,,,,,,",
",,,,,,,,,, XX---#X%%oX;$XXXX$XXXXX$XXXX$;Xo%%X#---XX ,,,,,,,,,,,",
",, X ,,,,,,X-;;;-X%%X$$XXXXXX$XXX$XXXXXX$$X%%X-;;;-X,,,,,, X ,,,",
",,X$X X ,, X;::;-X%%X;$XXXXXX#$X$#XXXXXX$;X%%X-;::;X ,, X X$X,,,",
",,X:$X$X  XX$$$$XXooX$#XXXXXX##$##XXXXXX#$XooXX$$$$XX  X$X$:X,,,",
",,X:$X:XXXXXXXXXXXooX$$$$$$$$$###$$$$$$$$$XooXXXXXXXXXXX:X$:X,,,",
",, X$:X$$$X;;;;XXXooX$;;::;;;$;;$;;;:::;$$XooXXX;;;;X$$$X:$X ,,,",
", XXXX::#$$X:XX###XoX$:::::::$::$:::::::;$XoX###XX:X$$#::XXXX ,,",
",X:;XXX;:#$XX##$$$XXX$:::::>:;::;$::>>>::$XXX$$$##XX$X:;XXX;:X,,",
",X::;XX;$#$X#$$;;;X$X;;::::;;;;;:;$$::::;;X$X;;;$$#X$X$;XX;::X,,",
",X#::;;;;;$X$;;:;$X$#;:;;;;::;;::;::;;;;;;#$X$;:;;$X$;;;;;::#X,,",
",X;#$::;:;#X;:$#X#$$#$::;::::;:::;::::;;;$#$$#X#$:;X#;:;::$X;X,,",
",X;::;;:;XXX$$$$$#XXX$:::::::::::;:::::;;$XXX#$$$$$XXX;:;;::;X,,",
", X;::::XX$$;;;;$#$$XX;:::::::::;:::>>:;;XX$$#$;;;;$$XX::::;X ,,",
",, XX;;;X$;;:;;;$#XX$$X;::::>:::;:>>::;;X$$XX#$;;;:;;$X;;;XX ,,,",
",,,, XXXX;:;:;;$##;;###XX;;::::;::::;;XX###;;##$;;:;:;XXXX ,,,,,",
",,,,,,, X;:;::$XXXX;;:;:;XXX;;;;;;;XXX;:;:;;XXXX$::;:;X ,,,,,,,,",
",,,,,,,, X;:$$X$$X X##>;::;;XXXXXXX;;::;>##X X$$X$$:;X ,,,,,,,,,",
",,,,,,,,, XXXX;;$X ,, ####>>;::;::;>>#### ,, X$;;XXXX ,,,,,,,,,,",
",,,,,,,,,,,, XX:;$X,,,,,, ########### ,,,,,,X$;:XX ,,,,,,,,,,,,,",
",,,,,,,,,,,,,, X:;X,,,,,,,,,,,,,,,,,,,,,,,,,X;:X ,,,,,,,,,,,,,,,",
",,,,,,,,,,,,,,, X:X,,,,,,,,,,,,,,,,,,,,,,,,,X:X ,,,,,,,,,,,,,,,,",
",,,,,,,,,,,,,,,, XX,,,,,,,,,,,,,,,,,,,,,,,,,XX ,,,,,,,,,,,,,,,,,"
};
