/* XPM */
static char *result[] = {
/* columns rows colors chars-per-pixel */
"64 42 15 1 ",
"  c black",
". c #1A0F09",
"X c #191912",
"o c #29191A",
"O c #231C20",
"+ c #342021",
"@ c #352B32",
"# c #482B2D",
"$ c #413038",
"% c #60393A",
"& c #4E3F49",
"* c #65505D",
"= c #8D4F52",
"- c #866B7B",
"; c None",
/* pixels */
";;;;;;;;;;;;;;;;;;;;;;;;;;;;;;;;;;;;;;;;;;;;;;;;;;;;;;;;;;;;;;;;",
";;;;;;;;;;;;;;;;;;;;;;;;;;;;;;;;;;;;;;;;;;;;;;;;;;;;;;;;;;;;;;;;",
";;;;;;;;;;;;;;;;;;;;;;;;;;;;;;;;;;;;;;;;;;;;;;;;;;;;;;;;;;;;;;;;",
";;;;;;;;;;;;;;;;;; XXXXXXXXXXXXXXXXXXXXXXXXX ;;;;;;;;;;;;;;;;;;;",
";;;;;;;;;; XXXX XXXXOO@@@@&&&&&&&&&&&@@@@OOXXXX XXXX ;;;;;;;;;;;",
";;;;;;;;; XOOOOXX@@OXXXXXXXXXXXXXXXXXXXXXXXO@@XXOOOOX ;;;;;;;;;;",
";;;;;;;; XOO@@@OOXOOOX+++++++++oo++++++++XOOOXOO@@@OOX ;;;;;;;;;",
";;;;;;;;XO@XXXO@@OXXOX####%%%%#oo#%%%%###XOXXO@@OXXX@OX;;;;;;;;;",
";;;;;;;;XXX@@@XXO@@XXX###%%%%%%oo%%%%%%##XXX@@OXX@@@XXX;;;;;;;;;",
";;;;;;; X@&&&@@@XOOOX####%%%%%%##%%%%%%###XOOOX@@@&&&@X ;;;;;;;;",
";;;;;; X@&**&&&@@XOXX##%%%%%%%%##%%%%%%%%#XXOX@@&&&**&@X ;;;;;;;",
";;;;;;X@&*XXXX&&@@XX####%%%#%%%##%%%%%%%###XX@@&&XXXX*&@X;;;;;;;",
";;;;;;X@*X$$$$XX&@@XX###%%%=%%%##%%%%%%%##XX@@&XX$$$$X*@X;;;;;;;",
";;;;;; XX$&&&&&&XXX@X#%%%%%%%%%####%%%%%%%X$XXX&&&&&&$XX ;;;;;;;",
";;;;;;;X$&&****&&$$X###%%%%%%XXXXX=%%%%%%##X$$&&****&&$X;;;;;;;;",
";;;;;;;X$&*&XXXXXXXX###%%%%%XX&X&XX%%%%%%##XXXXXXXX&*&$X;;;;;;;;",
";;;;;;; X$&X$&&&$$$X#%%%%%%X&@&@&@&X%%%%%%%X$$$&&&$X&$X ;;;;;;;;",
";;;;;;;; XX$***&&$X###%%XXX@*&*&*&*@XXX%%%##.$&&***$XX ;;;;;;;;;",
";;;;;;;;;X$&$$$$$$X###%X&@@@*&-&-&*@@@&X%%##.$$$$$$&$X;;;;;;;;;;",
";;;;;;;;; X$XXXXXX###%X&**&@&X&@&X&@&**&X%%##XXXXXX$X ;;;;;;;;;;",
";;;;;;;;;; XX$$$OX###X&@XXXX@XXXXX@XXXX@&X###XO$$$XX ;;;;;;;;;;;",
";; X ;;;;;;X$&&&$X##X@@XXXXXX@XXX@XXXXXX@@X##X$&&&$X;;;;;; X ;;;",
";;X@X X ;; X&**&$X##X&@XXXXXXO@X@OXXXXXX@&X##X$&**&X ;; X X@X;;;",
";;X*@X@X  XX@@@@XX++X@OXXXXXXOO@OOXXXXXXO@X++XX@@@@XX  X@X@*X;;;",
";;X*@X*XXXXXXXXXXX++X@@@@@@@@@OOO@@@@@@@@@X++XXXXXXXXXXX*X@*X;;;",
";; X@*X@@@X&&&&XXXooX@&&**&&&@&&@&&&***&@@XooXXX&&&&X@@@X*@X ;;;",
"; XXXX**O@@X*XXOOOXoX@*******@**@*******&@XoXOOOXX*X@@O**XXXX ;;",
";X*&XXX&*O@XXOO@@@XXX@*****-*&**&@**---**@XXX@@@OOXX@X*&XXX&*X;;",
";X**&XX&@O@XO@@&&&X@X&&****&&&&&*&@@****&&X@X&&&@@OX@X@&XX&**X;;",
";XO**&&&&&@X@&&*&@X@O&*&&&&**&&**&**&&&&&&O@X@&*&&@X@&&&&&**OX;;",
";X&O@**&*&OX&*@OXO@@O@**&****&***&****&&&@O@@OXO@*&XO&*&**@X&X;;",
";X&**&&*&XXX@@@@@OXXX@***********&*****&&@XXXO@@@@@XXX&*&&**&X;;",
"; X&****XX@@&&&&@O@@XX&*********&***--*&&XX@@O@&&&&@@XX****&X ;;",
";; XX&&&X@&&*&&&@OXX@@X&****-***&*--**&&X@@XXO@&&&*&&@X&&&XX ;;;",
";;;; XXXX&*&*&&@OO&&OOOXX&&****&****&&XXOOO&&OO@&&*&*&XXXX ;;;;;",
";;;;;;; X&*&**@XXXX&&*&*&XXX&&&&&&&XXX&*&*&&XXXX@**&*&X ;;;;;;;;",
";;;;;;;; X&*@@X@@X XOO-&**&&XXXXXXX&&**&-OOX X@@X@@*&X ;;;;;;;;;",
";;;;;;;;; XXXX&&@X ;; OOOO--&**&**&--OOOO ;; X@&&XXXX ;;;;;;;;;;",
";;;;;;;;;;;; XX*&@X;;;;;; OOOOOOOOOOO ;;;;;;X@&*XX ;;;;;;;;;;;;;",
";;;;;;;;;;;;;; X*&X;;;;;;;;;;;;;;;;;;;;;;;;;X&*X ;;;;;;;;;;;;;;;",
";;;;;;;;;;;;;;; X*X;;;;;;;;;;;;;;;;;;;;;;;;;X*X ;;;;;;;;;;;;;;;;",
";;;;;;;;;;;;;;;; XX;;;;;;;;;;;;;;;;;;;;;;;;;XX ;;;;;;;;;;;;;;;;;"
};
