/* XPM */
static char *result[] = {
/* columns rows colors chars-per-pixel */
"64 42 15 1 ",
"  c black",
". c #1A0F09",
"X c #191912",
"o c #29191A",
"O c #231C20",
"+ c #342021",
"@ c #352B32",
"# c #482B2D",
"$ c #413038",
"% c #60393A",
"& c #4E3F49",
"* c #65505D",
"= c #8D4F52",
"- c #866B7B",
"; c None",
/* pixels */
";;;;;;;;;;;;;;;;; XX;;;;;;;;;;;;;;;;;;;;;;;;;XX ;;;;;;;;;;;;;;;;",
";;;;;;;;;;;;;;;; X*X;;;;;;;;;;;;;;;;;;;;;;;;;X*X ;;;;;;;;;;;;;;;",
";;;;;;;;;;;;;;; X*&X;;;;;;;;;;;;;;;;;;;;;;;;;X&*X ;;;;;;;;;;;;;;",
";;;;;;;;;;;;; XX*&@X;;;;;; OOOOOOOOOOO ;;;;;;X@&*XX ;;;;;;;;;;;;",
";;;;;;;;;; XXXX&&@X ;; OOOO--&**&**&--OOOO ;; X@&&XXXX ;;;;;;;;;",
";;;;;;;;; X&*@@X@@X XOO-&**&&XXXXXXX&&**&-OOX X@@X@@*&X ;;;;;;;;",
";;;;;;;; X&*&**@XXXX&&*&*&XXX&&&&&&&XXX&*&*&&XXXX@**&*&X ;;;;;;;",
";;;;; XXXX&*&*&&@OO&&OOOXX&&****&****&&XXOOO&&OO@&&*&*&XXXX ;;;;",
";;; XX&&&X@&&*&&&@OXX@@X&&**--*&***-****&X@@XXO@&&&*&&@X&&&XX ;;",
";; X&****XX@@&&&&@O@@XX&&*--***&*********&XX@@O@&&&&@@XX****&X ;",
";;X&**&&*&XXX@@@@@OXXX@&&*****&***********@XXXO@@@@@XXX&*&&**&X;",
";;X&X@**&*&OX&*@OXO@@O@&&&****&***&****&**@O@@OXO@*&XO&*&**@O&X;",
";;XO**&&&&&@X@&&*&@X@O&&&&&&**&**&&**&&&&*&O@X@&*&&@X@&&&&&**OX;",
";;X**&XX&@X@XO@@&&&X@X&&****@@&*&&&&&****&&X@X&&&@@OX@O@&XX&**X;",
";;X*&XXX&*X@XXOO@@@XXX@**---**@&**&*-*****@XXX@@@OOXX@O*&XXX&*X;",
";; XXXX**O@@X*XXOOOXoX@&*******@**@*******@XoXOOOXX*X@@O**XXXX ;",
";;; X@*X@@@X&&&&XXXooX@@&***&&&@&&@&&&**&&@XooXXX&&&&X@@@X*@X ;;",
";;;X*@X*XXXXXXXXXXX++X@@@@@@@@@OOO@@@@@@@@@X++XXXXXXXXXXX*X@*X;;",
";;;X*@X@X  XX@@@@XX++X@OXXXXXXOO@OOXXXXXXO@X++XX@@@@XX  X@X@*X;;",
";;;X@X X ;; X&**&$X##X&@XXXXXXO@X@OXXXXXX@&X##X$&**&X ;; X X@X;;",
";;; X ;;;;;;X$&&&$X##X@@XXXXXX@XXX@XXXXXX@@X##X$&&&$X;;;;;; X ;;",
";;;;;;;;;;; XX$$$OX###X&@XXXX@XXXXX@XXXX@&X###XO$$$XX ;;;;;;;;;;",
";;;;;;;;;; X$XXXXXX##%%X&**&@&X&@&X&@&**&X%###XXXXXX$X ;;;;;;;;;",
";;;;;;;;;;X$&$$$$$$.##%%X&@@@*&-&-&*@@@&X%###X$$$$$$&$X;;;;;;;;;",
";;;;;;;;; XX$***&&$.##%%%XXX@*&*&*&*@XXX%%###X$&&***$XX ;;;;;;;;",
";;;;;;;; X$&X$&&&$$$X%%%%%%%X&@&@&@&X%%%%%%#X$$$&&&$X&$X ;;;;;;;",
";;;;;;;;X$&*&XXXXXXXX##%%%%%%XX&X&XX%%%%%###XXXXXXXX&*&$X;;;;;;;",
";;;;;;;;X$&&****&&$$X##%%%%%%=XXXXX%%%%%%###X$$&&****&&$X;;;;;;;",
";;;;;;; XX$&&&&&&XXX$X%%%%%%%####%%%%%%%%%#X@XXX&&&&&&$XX ;;;;;;",
";;;;;;;X@*X$$$$XX&@@XX##%%%%%%%##%%%=%%%###XX@@&XX$$$$X*@X;;;;;;",
";;;;;;;X@&*XXXX&&@@XX###%%%%%%%##%%%#%%%####XX@@&&XXXX*&@X;;;;;;",
";;;;;;; X@&**&&&@@XOXX#%%%%%%%%##%%%%%%%%##XXOX@@&&&**&@X ;;;;;;",
";;;;;;;; X@&&&@@@XOOOX###%%%%%%##%%%%%%####XOOOX@@@&&&@X ;;;;;;;",
";;;;;;;;;XXX@@@XXO@@XXX##%%%%%%oo%%%%%%###XXX@@OXX@@@XXX;;;;;;;;",
";;;;;;;;;XO@XXXO@@OXXOX###%%%%#oo#%%%%####XOXXO@@OXXX@OX;;;;;;;;",
";;;;;;;;; XOO@@@OOXOOOX++++++++oo+++++++++XOOOXOO@@@OOX ;;;;;;;;",
";;;;;;;;;; XOOOOXX@@OXXXXXXXXXXXXXXXXXXXXXXXO@@XXOOOOX ;;;;;;;;;",
";;;;;;;;;;; XXXX XXXXOO@@@@&&&&&&&&&&&@@@@OOXXXX XXXX ;;;;;;;;;;",
";;;;;;;;;;;;;;;;;;; XXXXXXXXXXXXXXXXXXXXXXXXX ;;;;;;;;;;;;;;;;;;",
";;;;;;;;;;;;;;;;;;;;;;;;;;;;;;;;;;;;;;;;;;;;;;;;;;;;;;;;;;;;;;;;",
";;;;;;;;;;;;;;;;;;;;;;;;;;;;;;;;;;;;;;;;;;;;;;;;;;;;;;;;;;;;;;;;",
";;;;;;;;;;;;;;;;;;;;;;;;;;;;;;;;;;;;;;;;;;;;;;;;;;;;;;;;;;;;;;;;"
};
