/* XPM */
static char *result[] = {
/* columns rows colors chars-per-pixel */
"42 42 9 1 ",
"  c #3F1700",
". c #351518",
"X c #002631",
"o c #353F3F",
"O c #532F2D",
"+ c #70443A",
"@ c #544E4E",
"# c #817B7B",
"$ c None",
/* pixels */
"$$$$$$$$$$$$$$$$$$$$$$$$$$$$$$$$$$$$$$$$$$",
"$$$$$$$$$$$$$$$$$$$$$$$$$$$$$$$$$$$$$$$$$$",
"$$$$$$$$$$$$$$$$$$$$$$$$$$$$$$$$$$$$$$$$$$",
"$$$$$$$$$$$$$$$$$$$$$$$$$$$$$$$$$$$$$$$$$$",
"$$$$$$$$$$$$$$$$$$$$$$$$$$$$$$$$$$$$$$$$$$",
"$$$$$ XX XXXXXXXXXXXXXXXXXXXXXXXX XX $$$$$",
"$$$$$X@@X@#@#X@#@##@@o@@@ooX@o##XX@@X$$$$$",
"$$$$$XooX@@o@Xo@@ooooooooooXoo@@XXooX$$$$$",
"$$$$$$XXXooooXXXXXXXXXXXXXXXooooXXXX$$$$$$",
"$$$$$$Xo@XXXXOO.OOOO.+OOO.O.XXXXXo@X$$$$$$",
"$$$$$$X@oXOO+++.O++O.+++OOO.OOOOXo@X$$$$$$",
"$$$$$$X@oXO++++.O++O.++O++O.O+++Xo@X$$$$$$",
"$$$$$$X#@XO++++.O++O.+++++O.O+++XooX$$$$$$",
"$$$$$$X#@XO++++.O++O.+++++O.O+++Xo@X$$$$$$",
"$$$$$$X@oXO+++O.O++O.+++++O.O+++Xo@X$$$$$$",
"$$$$$$X#@XO+++O.++++.+++++O.O+++Xo@X$$$$$$",
"$$$$$$X@oXO+++O.++++.O++++O.O+++Xo@X$$$$$$",
"$$$$$$X@oXO+++O.++++.O++++O.++++XooX$$$$$$",
"$$$$$$XooXO+++O.++++.O++++O.++++XooX$$$$$$",
"$$$$$$XooXO+++O.++++.O++++O.++++Xo@X$$$$$$",
"$$$$$$X@oXO+++O.++++.O++++O.++++Xo@X$$$$$$",
"$$$$$$X@oXO+++.O++++O.++++O.++++Xo@X$$$$$$",
"$$$$$$X@oXO+++.O+++OXXO+++O.++++Xo@X$$$$$$",
"$$$$$$X@oXO+++.O++OX##XO+++.++++Xo@X$$$$$$",
"$$$$$$X@oXO+++.O+OXX@@XXO++.++++Xo@X$$$$$$",
"$$$$$$Xo@XO+++.OOX#XooX@XO+.O+++Xo@X$$$$$$",
"$$$$$$Xo@XO++O.OX#oXXXXo@XO.O++OXooX$$$$$$",
"$$$$$$X@oXO++O.OX@X....XoXO.O+++Xo@X$$$$$$",
"$$$$$$XoXXO++O.+Xo@XO.X@oXO.O++OXo@X$$$$$$",
"$$$$$$XoXXO++O.+.Xo#XX@oX.O.O++OXo@X$$$$$$",
"$$$$$$X@oXO++O.+O.Xo#ooX.+O.O++OXooX$$$$$$",
"$$$$$$X@oXO++O.O+O.XXXX.OOO.O++OXooX$$$$$$",
"$$$$$$XoXXOOOO.OOOOOOOOOOOO.OOOOXooX$$$$$$",
"$$$$$$XXXXXXXXXXXXXXXXXXXXXXXXXXXXXX$$$$$$",
"$$$$$Xo@X#@#@@oooo@oo@@@@@o@oooooXo@X$$$$$",
"$$$$$XooXXo@ooXXXXXXXoooooooXXX@XXooX$$$$$",
"$$$$$ XXXXXXXXXXXXXXXXXXXXXXXXXXXXXX $$$$$",
"$$$$$$$$$$$$$$$$$$$$$$$$$$$$$$$$$$$$$$$$$$",
"$$$$$$$$$$$$$$$$$$$$$$$$$$$$$$$$$$$$$$$$$$",
"$$$$$$$$$$$$$$$$$$$$$$$$$$$$$$$$$$$$$$$$$$",
"$$$$$$$$$$$$$$$$$$$$$$$$$$$$$$$$$$$$$$$$$$",
"$$$$$$$$$$$$$$$$$$$$$$$$$$$$$$$$$$$$$$$$$$"
};
