/* XPM */
static char *result[] = {
/* columns rows colors chars-per-pixel */
"42 42 2 1 ",
"  c #6D4034",
". c #734136",
/* pixels */
"..........................................",
"..........................................",
"..........................................",
"..........................................",
"..........................................",
"..........................................",
"..........................................",
"..........................................",
"................            ..............",
"........................   ...............",
".....              .......................",
".........       .    .......    ..........",
"...........        .   ...................",
"  ........................................",
" ...................   ...................",
"..........................................",
"..........................................",
"................    ..........    ........",
"..........................................",
"..........................................",
"..........................................",
"..........................................",
"..........................................",
"..........................................",
"..........................................",
"..........................................",
"..........................................",
"..........................................",
"..........................................",
"..........................................",
"............  ............................",
".......  . ..       ......................",
"..........................................",
"..........................................",
"..........................................",
"................  ........................",
"..........................................",
"..........................................",
"..........................................",
"..........................................",
"..........................................",
".........................................."
};
