/* XPM */
static char *result[] = {
/* columns rows colors chars-per-pixel */
"42 42 4 1 ",
"  c #080000",
". c #808080",
"X c white",
"o c None",
/* pixels */
"oooooooooooooooooooooooooooooooooooooooooo",
"oooooooooooooooooooooooooooooooooooooooooo",
"oooooooooooooooooooooooooooooooooooooooooo",
"oooooooooooooooooooooooooooooooooooooooooo",
"oooooooooooooooooooooooooooooooooooooooooo",
"oooooooooooooooooooooooooooooooooooooooooo",
"oooooooooooooooooooooooooooooooooooooooooo",
"oooooooooooooooooooooooooooooooooooooooooo",
"oooooooooooooooooooooooooooooooooooooooooo",
"oooooooooooooooooooooooooooooooooooooooooo",
"oooooooooooooooooooooooooooooooooooooooooo",
"oooooooooooooooooooooooooooooooooooooooooo",
"oooooooooooooooooooooooooooooooooooooooooo",
"oooooooooooooooooooooooooooooooooooooooooo",
"oooooooooooooooooooooooooooooooooooooooooo",
"oooooooooooooo   oooooooo    ooooooooooooo",
"ooooooooooooo     oooooo      oooooooooooo",
"oooooooooooo  ooo        oooo  ooooooooooo",
"oooooooooooo  oooo XX.  ooooo  ooooooooooo",
"oooooooooooo  ooo XXXX.  oooo  ooooooooooo",
"ooooooooooooo  oo XXXX.  ooo  oooooooooooo",
"oooooooooooooo    .XX..      ooooooooooooo",
"ooooooooooooooo    ...      oooooooooooooo",
"oooooooooooooooooo      oooooooooooooooooo",
"ooooooooooooooooooo    ooooooooooooooooooo",
"oooooooooooooooooooooooooooooooooooooooooo",
"oooooooooooooooooooooooooooooooooooooooooo",
"oooooooooooooooooooooooooooooooooooooooooo",
"oooooooooooooooooooooooooooooooooooooooooo",
"oooooooooooooooooooooooooooooooooooooooooo",
"oooooooooooooooooooooooooooooooooooooooooo",
"oooooooooooooooooooooooooooooooooooooooooo",
"oooooooooooooooooooooooooooooooooooooooooo",
"oooooooooooooooooooooooooooooooooooooooooo",
"oooooooooooooooooooooooooooooooooooooooooo",
"oooooooooooooooooooooooooooooooooooooooooo",
"oooooooooooooooooooooooooooooooooooooooooo",
"oooooooooooooooooooooooooooooooooooooooooo",
"oooooooooooooooooooooooooooooooooooooooooo",
"oooooooooooooooooooooooooooooooooooooooooo",
"oooooooooooooooooooooooooooooooooooooooooo",
"oooooooooooooooooooooooooooooooooooooooooo"
};
