/* XPM */
static char *result[] = {
/* columns rows colors chars-per-pixel */
"42 42 3 1 ",
"  c #080000",
". c #777777",
"X c None",
/* pixels */
"XXXXXXXXXXXXXXXXXXXXXXXXXXXXXXXXXXXXXXXXXX",
"XXXXXXXXXXXXXXXXXXXXXXXXXXXXXXXXXXXXXXXXXX",
"XXXXXXXXXXXXXXXXXXXXXXXXXXXXXXXXXXXXXXXXXX",
"XXXXXXXXXXXXXXXXXXXXXXXXXXXXXXXXXXXXXXXXXX",
"XXXXXXXXXXXXXXXXXXXXXXXXXXXXXXXXXXXXXXXXXX",
"XXXXXXXXXXXXXXXXXXXXXXXXXXXXXXXXXXXXXXXXXX",
"XXXXXXXXXXXXXXXXXXXXXXXXXXXXXXXXXXXXXXXXXX",
"XXXXXXXXXXXXXXXXXXXXXXXXXXXXXXXXXXXXXXXXXX",
"XXXXXXXXXXXXXXXXXXXXXXXXXXXXXXXXXXXXXXXXXX",
"XXXXXXXXXXXXXXXXXXXXXXXXXXXXXXXXXXXXXXXXXX",
"XXXXXXXXXXXXXXX   XXX   XXXXXXXXXXXXXXXXXX",
"XXXXXXXXXXXXXX     X     XXXXXXXXXXXXXXXXX",
"XXXXXXXXXXXXX   XX   XXX  XXXXXXXXXXXXXXXX",
"XXXXXXXXXXXXX  XXXX  XXX  XXXXXXXXXXXXXXXX",
"XXXXXXXXXXXXX  XXXX XXXX  XXXXXXXXXXXXXXXX",
"XXXXXXXXXXXXX   XXX XXXX  XXXXXXXXXXXXXXXX",
"XXXXXXXXXXXXXX   XX XXXX  XXXXXXXXXXXXXXXX",
"XXXXXXXXXXXXXXX       X  XXXXXXXXXXXXXXXXX",
"XXXXXXXXXXXXXXXX  ..     XXXXXXXXXXXXXXXXX",
"XXXXXXXXXXXXXXXX ....   XXXXXXXXXXXXXXXXXX",
"XXXXXXXXXXXXXXXX ....   XXXXXXXXXXXXXXXXXX",
"XXXXXXXXXXXXXXXX  ..    XXXXXXXXXXXXXXXXXX",
"XXXXXXXXXXXXXXXX        XXXXXXXXXXXXXXXXXX",
"XXXXXXXXXXXXXXXXX      XXXXXXXXXXXXXXXXXXX",
"XXXXXXXXXXXXXXXXXX    XXXXXXXXXXXXXXXXXXXX",
"XXXXXXXXXXXXXXXXXXXXXXXXXXXXXXXXXXXXXXXXXX",
"XXXXXXXXXXXXXXXXXXXXXXXXXXXXXXXXXXXXXXXXXX",
"XXXXXXXXXXXXXXXXXXXXXXXXXXXXXXXXXXXXXXXXXX",
"XXXXXXXXXXXXXXXXXXXXXXXXXXXXXXXXXXXXXXXXXX",
"XXXXXXXXXXXXXXXXXXXXXXXXXXXXXXXXXXXXXXXXXX",
"XXXXXXXXXXXXXXXXXXXXXXXXXXXXXXXXXXXXXXXXXX",
"XXXXXXXXXXXXXXXXXXXXXXXXXXXXXXXXXXXXXXXXXX",
"XXXXXXXXXXXXXXXXXXXXXXXXXXXXXXXXXXXXXXXXXX",
"XXXXXXXXXXXXXXXXXXXXXXXXXXXXXXXXXXXXXXXXXX",
"XXXXXXXXXXXXXXXXXXXXXXXXXXXXXXXXXXXXXXXXXX",
"XXXXXXXXXXXXXXXXXXXXXXXXXXXXXXXXXXXXXXXXXX",
"XXXXXXXXXXXXXXXXXXXXXXXXXXXXXXXXXXXXXXXXXX",
"XXXXXXXXXXXXXXXXXXXXXXXXXXXXXXXXXXXXXXXXXX",
"XXXXXXXXXXXXXXXXXXXXXXXXXXXXXXXXXXXXXXXXXX",
"XXXXXXXXXXXXXXXXXXXXXXXXXXXXXXXXXXXXXXXXXX",
"XXXXXXXXXXXXXXXXXXXXXXXXXXXXXXXXXXXXXXXXXX",
"XXXXXXXXXXXXXXXXXXXXXXXXXXXXXXXXXXXXXXXXXX"
};
