/* XPM */
static char *result[] = {
/* columns rows colors chars-per-pixel */
"42 42 4 1 ",
"  c #080000",
". c #808080",
"X c white",
"o c None",
/* pixels */
"oooooooooooooooooooooooooooooooooooooooooo",
"oooooooooooooooooooooooooooooooooooooooooo",
"oooooooooooooooooooooooooooooooooooooooooo",
"oooooooooooooooooooooooooooooooooooooooooo",
"oooooooooooooooooooooooooooooooooooooooooo",
"oooooooooooooooooooooooooooooooooooooooooo",
"oooooooooooooooooooooooooooooooooooooooooo",
"oooooooooooooooooooooooooooooooooooooooooo",
"oooooooooooooooooooooooooooooooooooooooooo",
"oooooooooooooooooooooooooooooooooooooooooo",
"ooooooooooooooooo   ooo   oooooooooooooooo",
"oooooooooooooooo     o     ooooooooooooooo",
"ooooooooooooooo   oo   ooo  oooooooooooooo",
"ooooooooooooooo  oooo  ooo  oooooooooooooo",
"ooooooooooooooo  oooo oooo  oooooooooooooo",
"ooooooooooooooo   ooo oooo  oooooooooooooo",
"oooooooooooooooo   oo oooo  oooooooooooooo",
"ooooooooooooooooo       o  ooooooooooooooo",
"oooooooooooooooooo  XX.    ooooooooooooooo",
"oooooooooooooooooo XXXX.  oooooooooooooooo",
"oooooooooooooooooo XXXX.  oooooooooooooooo",
"oooooooooooooooooo .XX..  oooooooooooooooo",
"oooooooooooooooooo  ...   oooooooooooooooo",
"ooooooooooooooooooo      ooooooooooooooooo",
"oooooooooooooooooooo    oooooooooooooooooo",
"oooooooooooooooooooooooooooooooooooooooooo",
"oooooooooooooooooooooooooooooooooooooooooo",
"oooooooooooooooooooooooooooooooooooooooooo",
"oooooooooooooooooooooooooooooooooooooooooo",
"oooooooooooooooooooooooooooooooooooooooooo",
"oooooooooooooooooooooooooooooooooooooooooo",
"oooooooooooooooooooooooooooooooooooooooooo",
"oooooooooooooooooooooooooooooooooooooooooo",
"oooooooooooooooooooooooooooooooooooooooooo",
"oooooooooooooooooooooooooooooooooooooooooo",
"oooooooooooooooooooooooooooooooooooooooooo",
"oooooooooooooooooooooooooooooooooooooooooo",
"oooooooooooooooooooooooooooooooooooooooooo",
"oooooooooooooooooooooooooooooooooooooooooo",
"oooooooooooooooooooooooooooooooooooooooooo",
"oooooooooooooooooooooooooooooooooooooooooo",
"oooooooooooooooooooooooooooooooooooooooooo"
};
