/* XPM */
static char *result[] = {
/* columns rows colors chars-per-pixel */
"28 28 10 1 ",
"  c #080000",
". c #B97371",
"X c #67979C",
"o c #68989C",
"O c #CF9C9B",
"+ c #9CC8CC",
"@ c #9CC8CD",
"# c #E3C6C5",
"$ c white",
"% c None",
/* pixels */
"%%%%%%%%            %%%%%%%%",
"%%%%%%                %%%%%%",
"%%%%%     OOOOOOOO     %%%%%",
"%%%%    O##########O    %%%%",
"%%%   O##############O   %%%",
"%%   O################O   %%",
"%%  O##################O  %%",
"%   ####################   %",
"%  O####################O  %",
"   ######################   ",
"  O######################O  ",
"  O######################O  ",
"    O### #### ###########O  ",
"     O##      @#########O.  ",
"  $$$ ##O    @@@########O   ",
"      ###++++#o########O.   ",
"%  OOO###@@@@##########O   %",
"%  .O####@@++#########O.   %",
"%%  .O###@@@+########O.   %%",
"%%%  .O##@@@@######OO.   %%%",
"%%%%   .OX@@@#####O.    %%%%",
"%%%%%     XXXOOOO.     %%%%%",
"%%%%%%%              %%%%%%%",
"%%%%%%%%%%        %%%%%%%%%%",
"%%%%%%%%%%%%%%%%%%%%%%%%%%%%",
"%%%%%%%%%%%%%%%%%%%%%%%%%%%%",
"%%%%%%%%%%%%%%%%%%%%%%%%%%%%",
"%%%%%%%%%%%%%%%%%%%%%%%%%%%%"
};
