/* XPM */
static char *result[] = {
/* columns rows colors chars-per-pixel */
"42 42 6 1 ",
"  c #39231B",
". c #492D24",
"X c #613C2F",
"o c #683F33",
"O c #6D4034",
"+ c #734136",
/* pixels */
" .XX+++++OO+++++++++++++++++++++++++++++++",
" ..XX++++OO+++++++++++++++++++++++++++++++",
" .XXX++++OO+++++++++++++++++++++++++++++++",
" ..XX+++++++++++++++++++++++++++++++++++++",
" .XXX++++O++++++++++++++++++++++++++++++++",
" ..XX+++++++++++++++++++++++++++++++++++++",
" .X.XX++++++++++++++++++++++++++++++++++++",
" ..XX+++++++++++++++++++++++++++++++++++++",
" ...XX++++++++++++++++++++++++++++++++++++",
" ..XX+++++++++++++++++++++++++++++++++++++",
" ...XX++++++++++++++++++++++++++++++++++++",
" ..XX+++++++++++++++++++++++++++++++++++++",
" ...XX++++++++++++++++++++++++++++++++++++",
" ..XXX+++++++++++++++++++++++++++++++++++O",
" ..XX++++++++++++++++++++++++++++++++++++O",
" ..XXX++++++++++O+++++++++++++++++++++++++",
" ..XX+++++++++++O+++++++++++++++++++++++++",
" .XXX+++++++++++O+++++++++++++++++++++++++",
" ..XX+++++++++++O+++++++++++++++++++++++++",
" .XXX+++++++++++O+++++++++++++++++++++++++",
" ..XX+++++++++++O+++++++++++++++++++++++++",
" .XXX++++++++++OO+++o+++++++++++++++++++++",
" .XX++++++++++OOOO++o++++++++++++++++O++++",
" .XX++++++++++OOOO+++++++++++++++++++O++++",
" .XXX++++++++++OoO+++++++++++++++++++O++++",
" .XX+++++++++++OOO++++++++++++++++++++++++",
" .XXX++++++++++OOO++++++++++++++++++++++++",
" .XX++++++++++++O+++++++++++++++++++++++++",
" .XXX+++++++++++O+++++++++++++++++++++++++",
" .XX++++++++++++O+++++++++++++++++++++++++",
" .XXX+++++++++++++++++++++++++++++++++++++",
" .XX++++++++++++++++++++++++++++++++++++++",
" .XXX+++++++++++++++++++++++++++++++++++++",
" .XXX+++++++++++++++++++++++++++++++++++++",
" .XX+X++++++++++++++++++++++++++++++++++++",
" ..XX+++++++++++++++++++++++++++++++++++++",
" ..XX+++++++++++++++++++++++++++++++++++++",
" .XXXX+X++++++++++++++++++++++++++++++++++",
" ..XX+XX++++++++++++++++++++++++++++++++++",
" .XXXXX+++++++++++++++++++++++++++++++++++",
" ..XX+++++++++++++++++++++++++++++++++++++",
" ...XX++++++++++++++++++++++++++++++++++++"
};
