/* XPM */
static char *result[] = {
/* columns rows colors chars-per-pixel */
"42 42 6 1 ",
"  c #39231B",
". c #492D24",
"X c #613C2F",
"o c #683F33",
"O c #6D4034",
"+ c #734136",
/* pixels */
"+++++++++++++OO+++++++++++++++++++++++++++",
"++++++++++++++++++++++++++++++++++++++++++",
"++++++++++++++++++++++++++++++++++++++++++",
"++++++++++++++++++++++++++++++++++++++++++",
"++++++++++++++++++++++OOO+++++++++++++++++",
"++++++++++++++++++++++++++++++++++++++++++",
"++++++++++++++++++++++++++++++++++++++++++",
"++++++++++++++++++++++++++++++++++++++++++",
"++++++++++++++++++++++++++++++++++++++++++",
"++++++++++++++++++++++++++++++++++++++++++",
"++++++++++++++++++++++++++++++++++++++++++",
"++++++++++++++++++++++++++++++++++++++++++",
"++++++++++++++++++++++++++++++++++++++++++",
"++++++++++++++++++++++++++++++++++++++++++",
"++++++++++++++++++++++++++++++++++++++++++",
"++++++++++++++++++++++++++++++++++++++++++",
"++++++++++++++++++++++++++++++++++++++++++",
"++++++++++++++++++++++++++++++++++++++++++",
"++++++++++++++++++++++++++++++++++++++++++",
"++++++++++++++++++++++++++++++++++++++++++",
"++++++++++++++++++++++++++++++++++++++++++",
"+++++++++++++++++++++oo+++++++++++++++++++",
"++++++++++++++++++++++++++++++++++++++++++",
"++++++++++++++++++++++++++++++++++++++++++",
"++++++++++++++++++++++OOOOO+++++++++++++++",
"+++++++++++++++OOOOOOOOOoOOOOO++++++++++++",
"+++++++++++++++++++++OOOOOO+++++++++++++++",
"++++++++++++++++++++++OO++++++++++++++++++",
"++++++++++++++++++++++++++++++++++++++++++",
"++++++++++++++++++++++++++++++++++++++++++",
"++++++++++++++++++++++++++++++++++++++++++",
"OOO+++++++++++++++++++++++++++++++++++++++",
"OOO+O+++++++++++++++++++++++++++++++++++++",
"++++++++++++++++++++++++++++++++++++++++++",
"+++++++++++++++++++++++++++++++++++++XX+++",
"++++++++++++++++++++++++++++++++++++++XX++",
"++++++X+X+X+XX+X++++++++++++++++++X++X+X+X",
"+XXXXXXXXXXXXXXXXXXXXX++X+X+X+X+XX+XXXXXXX",
"XXXXXX.X.X.X.XXXXXXXXXXXXXXXXXXXXXXXXXXXX.",
"X.X.X.X..........X.X.XXXXXXXXXXXXXX..X.X..",
"..........................................",
"                                          "
};
