/* XPM */
static char *result[] = {
/* columns rows colors chars-per-pixel */
"42 42 5 1 ",
"  c #080000",
". c #B97371",
"X c #CF9C9B",
"o c #E3C6C5",
"O c None",
/* pixels */
"OOOOOOOOOOOOOOOOOOOOOOOOOOOOOOOOOOOOOOOOOO",
"OOOOOOOOOOOOOOOOOOOOOOOOOOOOOOOOOOOOOOOOOO",
"OOOOOOOOOOOOOOOOOOOOOOOOOOOOOOOOOOOOOOOOOO",
"OOOOOOOOOOOOOOOOOOOOOOOOOOOOOOOOOOOOOOOOOO",
"OOOOOOOOOOOOOOOOO        OOOOOOOOOOOOOOOOO",
"OOOOOOOOOOOOOOO            OOOOOOOOOOOOOOO",
"OOOOOOOOOOOOO    XXXXXXXX    OOOOOOOOOOOOO",
"OOOOOOOOOOOO   XooooooooooX   OOOOOOOOOOOO",
"OOOOOOOOOOO  XooooooooooooooX  OOOOOOOOOOO",
"OOOOOOOOOO  XooooooooooooooooX  OOOOOOOOOO",
"OOOOOOOOO  XooooooooooooooooooX  OOOOOOOOO",
"OOOOOOOOO  oooooooooooooooooooo  OOOOOOOOO",
"OOOOOOOO  XooooooooooooooooooooX  OOOOOOOO",
"OOOOOOOO  oooooooooooooooooooooo  OOOOOOOO",
"OOOOOOO  XooooooooooooooooooooooX  OOOOOOO",
"OOOOOOO  XooooooooooooooooooooooX  OOOOOOO",
"OOOOOOO  XooooooooooooooooooooooX  OOOOOOO",
"OOOOOOO  XooooooooooooooooooooooX  OOOOOOO",
"OOOOOOO  .XooooooooooooooooooooX.  OOOOOOO",
"OOOOOOOO  XooooooooooooooooooooX   OOOOOOO",
"OOOOOOOO  .XooooooooooooooooooX.   OOOOOOO",
"OOOOOOOOO  XooooooooooooooooooX   OOOOOOOO",
"OOOOOOOOO  .XooooooooooooooooX.   OOOOOOOO",
"OOOOOOOOOO  .XooooooooooooooX.   OOOOOOOOO",
"OOOOOOOOOOO  .XXooooooooooXX.   OOOOOOOOOO",
"OOOOOOOOOOOO   .XXooooooXX.    OOOOOOOOOOO",
"OOOOOOOOOOOOO    .XXXXXX.     OOOOOOOOOOOO",
"OOOOOOOOOOOOOO              OOOOOOOOOOOOOO",
"OOOOOOOOOOOOO  Xo        oX  OOOOOOOOOOOOO",
"OOOOOOOOOOOO  XooXXXXXXXXooX  OOOOOOOOOOOO",
"OOOOOOOOOOOO  Xo XooooooX oX  OOOOOOOOOOOO",
"OOOOOOOOOOOO  Xo oooooooo oX  OOOOOOOOOOOO",
"OOOOOOOOOOOOO    ooX  Xoo    OOOOOOOOOOOOO",
"OOOOOOOOOOOOOO   ooo  Xoo   OOOOOOOOOOOOOO",
"OOOOOOOOOOOOOOO   oo  Xo   OOOOOOOOOOOOOOO",
"OOOOOOOOOOOOOOOO          OOOOOOOOOOOOOOOO",
"OOOOOOOOOOOOOOOOO   OO   OOOOOOOOOOOOOOOOO",
"OOOOOOOOOOOOOOOOOOOOOOOOOOOOOOOOOOOOOOOOOO",
"OOOOOOOOOOOOOOOOOOOOOOOOOOOOOOOOOOOOOOOOOO",
"OOOOOOOOOOOOOOOOOOOOOOOOOOOOOOOOOOOOOOOOOO",
"OOOOOOOOOOOOOOOOOOOOOOOOOOOOOOOOOOOOOOOOOO",
"OOOOOOOOOOOOOOOOOOOOOOOOOOOOOOOOOOOOOOOOOO"
};
