/* XPM */
static char *result[] = {
/* columns rows colors chars-per-pixel */
"130 19 48 1 ",
"  c #080000",
". c #090000",
"X c #0E0101",
"o c #170202",
"O c #1C0302",
"+ c #270503",
"@ c #2F0604",
"# c #362F2D",
"$ c #440906",
"% c #450907",
"& c #4C0A07",
"* c #580C09",
"= c #650E0A",
"- c #670E0A",
"; c #690E0B",
": c #6C0F0B",
"> c #72100B",
", c #77100C",
"< c #7A110C",
"1 c #7B110D",
"2 c #534741",
"3 c #736357",
"4 c #83120D",
"5 c #84120D",
"6 c #87130E",
"7 c #88130E",
"8 c #8B130E",
"9 c #8E140E",
"0 c #96150F",
"q c #981510",
"w c #991510",
"e c #9C1610",
"r c #A21711",
"t c #A31711",
"y c #A61711",
"u c #A81811",
"i c #A91811",
"p c #B01912",
"a c #B21912",
"s c #B51A13",
"d c #B61A13",
"f c #BA1A13",
"g c #BE1B14",
"h c #C11B14",
"j c #CD1D15",
"k c #D21E16",
"l c #998675",
"z c None",
/* pixels */
"zzzzz         zzzzzzzzzzzzzzzzzzzzzzzzzzzzzzzzzzzzzzzzzzzzzzzzzzzzzzzzzzzzzzzzzzzzzzzzzzzzzzzzzzzzzzzzzzzzzzzzzzzzzzzzzzzzzzzzzzzz",
"zzz             zzzzzzzzzzzzzzzzzzzzzzzzzzzzzzzzzzzzzzzzzzzzzzzzzzzzzzzzzzzzzzzzzzzzzzzzzzzzzzzzzzzzzzzzzzzzzzzzzzzzzzzzzzzzzzzzzz",
"zz   23llll332   zzzzzzzzzzzzzzzzzzzzzzzzzzzzzzzzzzzzzzzzzzzzzzzzzzzzzzzzzzzzzzzzzzzzzzzzzzzzzzzzzzzzzzzzzzzzzzzzzzzzzzzzzzzzzzzzz",
"z  23lll33333332  zzzzzzzzzzzzzzzzzzzzzzzzzzzzzzzzzzzzzzzzzzzzzzzzzzzzzzzzzzzzzzzzzzzzzzzzzzzzzzzzzzzzzzzzzzzzzzzzzzzzzzzzzzzzzzzz",
"z  2233333333322  84qo                                                                                                         zzz",
"  #   2233322   # 7fg,                                                                                                          zz",
"   3ll##222##ll3  ::thO                                                                                                          z",
"  2223ll323ll3222 ::9d@                                                                                                          z",
"      2222222     ::7r*                                                                                                          z",
"  #             # ::>w;                                                                                                          z",
"  2     # #     2 ::=e;                                                                                                          z",
"  #32  #   #  23# ::-p%                                                                                                          z",
"z  #l322 # 223l#  <1ys                                                                                                           z",
"zz  ##2323232##  +i6j6                                                                                                           z",
"zzz    l l l    $sak5X                                                                                                          zz",
"zzzz   3 3 3    u40&.                                                                                                          zzz",
"zzzzz         zzzzzzzzzzzzzzzzzzzzzzzzzzzzzzzzzzzzzzzzzzzzzzzzzzzzzzzzzzzzzzzzzzzzzzzzzzzzzzzzzzzzzzzzzzzzzzzzzzzzzzzzzzzzzzzzzzzz",
"zzzzzzz     zzzzzzzzzzzzzzzzzzzzzzzzzzzzzzzzzzzzzzzzzzzzzzzzzzzzzzzzzzzzzzzzzzzzzzzzzzzzzzzzzzzzzzzzzzzzzzzzzzzzzzzzzzzzzzzzzzzzzz",
"zzzzzzzzzzzzzzzzzzzzzzzzzzzzzzzzzzzzzzzzzzzzzzzzzzzzzzzzzzzzzzzzzzzzzzzzzzzzzzzzzzzzzzzzzzzzzzzzzzzzzzzzzzzzzzzzzzzzzzzzzzzzzzzzzz"
};
