/* XPM */
static char *result[] = {
/* columns rows colors chars-per-pixel */
"17 14 17 1 ",
"  c #6C0F0B",
". c #6D0F0B",
"X c #6E0F0B",
"o c #700F0B",
"O c #73100B",
"+ c #72100C",
"@ c #73100C",
"# c #79110D",
"$ c #A31711",
"% c #A51711",
"& c #A71811",
"* c #A81811",
"= c #A91811",
"- c #AF1912",
"; c #B01912",
": c #B11912",
"> c None",
/* pixels */
">>>>>>>>>>>>>>>>>",
">>>::::::;::;>>>>",
">>>>>>>>    o:>>>",
">>>>>>>>     O->>",
">>>>>>>>      #;>",
">>>>>>>>       =>",
">>>>>>>>       $>",
">>>>>>>>       &>",
">>>>>>>>       *>",
">>>>>>>>      X%>",
">>>>>>>>     .;>>",
">>>>>>>>+@.  *>>>",
">::::::::;;-=>>>>",
">>>>>>>>>>>>>>>>>"
};
