/* XPM */
static char *result[] = {
/* columns rows colors chars-per-pixel */
"17 17 8 1 ",
"  c black",
". c #282018",
"X c #484030",
"o c #706050",
"O c #988870",
"+ c #C09878",
"@ c #B8A890",
"# c #E0B088",
/* pixels */
"#################",
"## ###    ### ###",
"# @ # O@@O # @ @#",
"# o@ o@  @o @@ @#",
"## o O    O o@@@#",
"#         O  o@o#",
" @@@OO     O  @ #",
" @@O@o @@@@OX @ #",
" o@Ooo OOOOoX @ #",
" o@Ooo ...oX O@ #",
" o@Ooo OOo.  Xo #",
" o@OoX ...X o O #",
" o@OoX @@OX Oo@ #",
" @@O@X OOo X o@ #",
" o@ooX    XoO @ #",
"+     o  XXXXO@ #",
"#+ @@O ++ O@@ ++#"
};
