/* XPM */
static char *result[] = {
/* columns rows colors chars-per-pixel */
"42 42 8 1 ",
"  c #1B1216",
". c #271916",
"X c #3E2920",
"o c #4F2F27",
"O c #59352C",
"+ c #643B31",
"@ c #8A5340",
"# c None",
/* pixels */
"##########################################",
"##########################################",
"##########################################",
"##########################################",
"##########################################",
"##########################################",
"##########################################",
"##########################################",
"##########################################",
"##########################################",
"##########################################",
"##########################################",
"##########################################",
"##########################################",
"##############     ##########    #########",
"############# oOOoX #    ##  oooo ########",
"##########   .XoooX. o@Oo  ooOOoo ########",
"######### @+OX.XX....XooXX.oO++OoX########",
"######## o+@OoX..XXXX.XXX.XO+@+OoX########",
"######## oOOOoXooooooX...XoO@+Ooo.########",
"####### XXoooX.@Oo@@Oooo+@@+OOooX.########",
"####### .XXXX.X++X++OoXoOOOOoXoXX.########",
"####### ..XX..XOOXOOOXXooooooXXX..########",
"######## .....XooXoOoXXXooooX.X...########",
"######## ......XX.ooX.XXXXXXX.... ########",
"######### ......X.XXX...XXX..... #########",
"########## .................... ##########",
"###########  ................  ###########",
"#############    ..........   ############",
"#################           ##############",
"##########################################",
"##########################################",
"##########################################",
"##########################################",
"##########################################",
"##########################################",
"##########################################",
"##########################################",
"##########################################",
"##########################################",
"##########################################",
"##########################################"
};
