/* XPM */
static char *result[] = {
/* columns rows colors chars-per-pixel */
"42 42 8 1 ",
"  c #1B1216",
". c #271916",
"X c #3E2920",
"o c #4F2F27",
"O c #59352C",
"+ c #643B31",
"@ c #8A5340",
"# c None",
/* pixels */
"##########################################",
"##########################################",
"##########################################",
"##########################################",
"##########################################",
"##########################################",
"##########################################",
"################## o######################",
"################# o ######################",
"################ oOo #####################",
"################ oooX   ##################",
"############### .XXX.Xoo  ################",
"############## oX...XoOOoo ###############",
"############# oO++O+@@+Ooo ###############",
"############ oO+@@++++OoX.. ##############",
"############ oOO++OOooX..Xoo  ############",
"############ ooooooXX..XoO++oo ###########",
"########### ..XXXX...Xo+O+@+Oo ###########",
"########## ooX....XoOO++o@++Ooo ##########",
"######### ooO+@++++OO@@+ooOOooo ##########",
"######### oOO++@@@++O++OoXooooX ##########",
"######### oOXO+++++OXOOOXXXXXX.. #########",
"######### XXXX.XXXX...XX......oX #########",
"######## ..XX...XX......XoOO+Ooo #########",
"####### XoX.......oO++O@@++OOOoXX ########",
"####### oO+@O+@@+O+@@+O+++OOXooXX ########",
"####### oOO+O++++O++++oOOOoXXoXXX ########",
"####### .XXXXoooXXXoooXXXXXX.XX.. ########",
"######## .XX.XXXX.XXXXXXX.X..X.. #########",
"######### ....XX...XXXXX....... ##########",
"##########   ................  ###########",
"############     ........     ############",
"################          ################",
"##########################################",
"##########################################",
"##########################################",
"##########################################",
"##########################################",
"##########################################",
"##########################################",
"##########################################",
"##########################################"
};
