/* XPM */
static char *result[] = {
/* columns rows colors chars-per-pixel */
"17 17 4 1 ",
"  c #583818",
". c #A05828",
"X c #C09878",
"o c #E0B088",
/* pixels */
"ooooooooooooooooo",
"ooooooooooooooooo",
"ooooooooooooooooo",
"oooooooooooo.oooo",
"ooooooooooo.o Xoo",
"oo..ooooooooXXooo",
"o.oo Xooooooooooo",
"ooXXXoooooooooooo",
"ooooooooooooooooo",
"ooooooooooooooooo",
"oooo...oooooooooo",
"ooo.ooo.ooooooooo",
"ooo oo. ooooooooo",
"oooX   XXoooooooo",
"ooooXXXXooooXXooo",
"ooooooooooooooooo",
"ooooooooooooooooo"
};
