/* XPM */
static char *result[] = {
/* columns rows colors chars-per-pixel */
"17 17 4 1 ",
"  c #583818",
". c #A05828",
"X c #C09878",
"o c #E0B088",
/* pixels */
"ooooooooooooooooo",
"ooooooooooooooooo",
"oooooo.oooooooooo",
"ooooo.o Xoooooooo",
"ooooooXXooooooooo",
"ooooooooooooooooo",
"ooooooooooooooooo",
"ooooooooooooooooo",
"oooooooooooo..ooo",
"ooooooooooo.oo Xo",
"ooooXXXoooooXXXoo",
"ooooooooooooooooo",
"ooooooooooooooooo",
"ooooooooooooooooo",
"ooooooooooooooooo",
"ooooooooooooooooo",
"ooooooooooooooooo"
};
