/* XPM */
static char *result[] = {
/* columns rows colors chars-per-pixel */
"18 18 5 1 ",
"  c #A5A500",
". c #ADBD08",
"X c #B5CE08",
"o c #DEBD42",
"O c white",
/* pixels */
"XXXXXXXXXXXXXXXXX.",
"XXXXXXXXXXXXXXXXXX",
"XXXXXXXXXXXXXXXXXX",
"XXXXXXXXXXXXXXXXXX",
"XXXXXXXXXXXXXXXXXX",
"XXXXXXXXXXXXXXXXXX",
"XXXXXXXXXXXXXXXXXX",
"XXXXXXXXXXXXXXXXXX",
"XXXXXXXXXXXOXXXXXX",
"XXXXXXXXXXOoOXXXXX",
"XXXXXXXXXX O XOXXX",
"XXXXXXXXXXX XOoOXX",
"XXXXXXXXXXOXX O XX",
"XXXXXXXXXOoOXX XXX",
"XXXXXXXXX O XXXXXX",
"XXXXXXXXXX XXXXXXX",
"XXXXXXXXXXXXXXXXXX",
"XXXXXXXXXXXXXXXXXX"
};
