/* XPM */
static char *result[] = {
/* columns rows colors chars-per-pixel */
"18 18 4 1 ",
"  c #A5A500",
". c #B5CE08",
"X c #DEBD42",
"o c white",
/* pixels */
"..................",
"..................",
"..................",
".......o..........",
"......oXo.........",
"....o. o .........",
"...oXo. ..........",
"... o ..o.........",
".... ..oXo........",
"....... o ........",
"........ .........",
"..................",
"..................",
"..................",
"..................",
"..................",
"..................",
".................."
};
