/* XPM */
static char *result[] = {
/* columns rows colors chars-per-pixel */
"32 32 16 1 ",
"  c #393131",
". c #633921",
"X c #73736B",
"o c #845A21",
"O c #A56B31",
"+ c #A5215A",
"@ c #D65A73",
"# c #DE9C7B",
"$ c #523984",
"% c #6B6BC6",
"& c gray71",
"* c #FF9C94",
"= c #FFDEBD",
"- c #84B5FF",
"; c #F7F7E7",
": c None",
/* pixels */
"::::::::::::::::::::::::::::::::",
"::::::::::::::::::::::::::::::::",
"::::::::::::::::::::::::::::::::",
"::::::::::::::::::::::::::::::::",
"::::::::::::::::::::::::::::::::",
":::::::::::::+@@@+::::::::::::::",
":::::::::::+@@@@**@+::::::::::::",
"::::::::::+@****@@@@+:::::::::::",
"::::::::::+******@*=@+::::::::::",
":::::::::@*@****;;**=+::::::::::",
":::::::::&;*+@@;XX;**@::::::::::",
"::::::::::O;&++;X ;*@+::::::::::",
":::::::::::O.O.&  &@@+::::::::::",
":::::::::::#= ;.  &@+:::::::::::",
":::::::::::O= ;O.#X&::::::::::::",
"::::::::::::#==O.Oo.:o.:::::::::",
":::::::::::::O#.O&.oo.::::::::::",
":::::::::::::;$&&@+:::::::::::::",
":::::::::::::;%;@++:::::::::::::",
"::::::::::::&&-;@**+::::::::::::",
":::::::::::$;%%;+**@::::::::::::",
":::::::::::O%-%;@**&$:::::::::::",
":::::::::::#&%-;&;;-$:::::::::::",
":::::::::::::;%%%$%$#:::::::::::",
"::::::::::::::;;&O=#O:::::::::::",
":::::::::::::O=#O OO :::::::::::",
"::::::::::::: X#O   @X::::::::::",
"::::::::::::& X  @@@@&::::::::::",
":::::::::::@@;   @@@@&::::::::::",
":::::::::::@***@+@@@X:::::::::::",
":::::::::::&****+X&X::::::::::::",
":::::::::::&;;;&::::::::::::::::"
};
