/* XPM */
static char *result[] = {
/* columns rows colors chars-per-pixel */
"15 15 20 1 ",
"  c #070000",
". c #060100",
"X c #070101",
"o c #080000",
"O c #090000",
"+ c #090100",
"@ c #090001",
"# c #0A0001",
"$ c #090003",
"% c gray12",
"& c #790000",
"* c #E40000",
"= c #E60000",
"- c #E60100",
"; c #E80000",
": c #E90101",
"> c #E80002",
", c #F69679",
"< c white",
"1 c None",
/* pixels */
"111111111111111",
"111111111111111",
"111oo111oo11111",
"11#%%X1X%%+1111",
"1o%>>%@%..%#111",
"o%><,>%....%o11",
"o%;,-*>....%o11",
"o%&;:-.....%X11",
"1o%&;=;...%$111",
"11+%&;...% 1111",
"111O%&;.%o11111",
"1111o%&%o111111",
"11111X%X1111111",
"111111@11111111",
"111111111111111"
};
