/* XPM */
static char *result[] = {
/* columns rows colors chars-per-pixel */
"42 42 25 1 ",
"  c black",
". c #070001",
"X c #21100E",
"o c #371613",
"O c #39231B",
"+ c #491A16",
"@ c #591110",
"# c #5F1513",
"$ c #581C18",
"% c #671A17",
"& c #6D1D1A",
"* c #54211C",
"= c #74221D",
"- c #492D24",
"; c #642B23",
": c #762421",
"> c #782624",
", c #6E3128",
"< c #613C2F",
"1 c #7B392F",
"2 c #704436",
"3 c #704536",
"4 c #83423B",
"5 c #835140",
"6 c #8E5E52",
/* pixels */
"####*-----------------------O---OO--------",
"<;%;<<<<<-<<<<<<<<<<<<<<<<<<-<<--O-<<<<<<<",
"33&<3<3<<-<<<<<<<3<<3<3<3<3<<<<<-O<3<3<3<<",
"<,&333333<3<<3<3<3<3333333333<3<<-O3<3<33<",
"3&&333333333333<&3333333333333<<<--<333353",
"3&&,333333333333&333333333333333<<-33333<3",
"3&,&333333333333&,33533333333333<--<333333",
"3&3&333333333333&&33<33333333333<--3333333",
"2&2&222222222222,&,22222222222222<--<22222",
"2&,&2222222222222&&222222222222222--222222",
"5===-255555555555==55555555555552--O-25555",
"-*##@+----------*##*--------------O-------",
"22*@+<22222222222-<222222222222&&22222222-",
"252-<225255252222<2222225222522,&,22222522",
"5252<252525525255222252525252522=&52525255",
"5552<52555&155552222525252555555==25255555",
"55252<2555==555552252555555555651=15555555",
"55552;1555==5555552255555555=5255==5555555",
"55552;=155==5555555555555555=1555==5555555",
"55552&==52==15555555555==555==555==1555555",
"55552&==12===5555555555==555==5551==555555",
"555522=1=51==55555555551=155==5555==555555",
"555552&==55==55555555551==15515555==155555",
"555552&==15==1555555551=====155551===56555",
"555521$&==1======11===========151====42556",
"======:===::================:=====::>&&:>&",
"::::::>:::=>::::::::====:=::>:::::>>&&$>>&",
">>>>>>&>>>>>>>>>>>>>::::>:>>>>>>>>>>>>>&&&",
">>>>>&&&&>>>>>>>>>>>>>>>>>>>>>>>>>>>>>>>>>",
"&&&&&&$$&&&&&&&&&&&&&&&&&&&&&&&&&&&&&&&&&&",
"$$$$$$$+$$$$$$$$$$$$$$$$$$$$$$$$$$$$$$$$$$",
"$$$$$$$o+$$$$$$$$$$$$$$$$$$$$$$$$$++$+$$$$",
"+++++++o++++++++++++++++++++++++++++++++++",
"+++++++ o+++++++++++++++++++++++++++++++++",
"ooooo+o  o+ooooooooooooooooooooooooooooooo",
"ooooooo  Xoooooooooooooooooooooooooooooooo",
"XXXXXoX  XoXXXXXXXXXXXXXXXXXXXXXXXXXXXXXXX",
"XXXXXX  XoXXXXXXXXXXXXXXXXXXXXXXXXXXXXXXXX",
" XX      X XXXXXXXXXXXXXXXXXXXXXXXXXXXXXXX",
"X  X    X XXXXXXXXXXXXXXXXXXXXXXXXXXXXXX X",
" .  .     . . ..... ........   ......... .",
"                                          "
};
