/* XPM */
static char *result[] = {
/* columns rows colors chars-per-pixel */
"18 18 10 1 ",
"  c #7B4218",
". c #634A29",
"X c #A55A21",
"o c #C66B29",
"O c #DE7B39",
"+ c #948463",
"@ c #EF8C4A",
"# c #FFA563",
"$ c #FFCE8C",
"% c None",
/* pixels */
"%%%%%%%%%%%%%%%%%%",
"%%%%%%++++++%%%%%%",
"%%%%++......++%%%%",
"%%%+..@@##@@..+%%%",
"%% +O#$@$$@$#O+ %%",
"%%X+o#$@$$@$#o+X%%",
"% @.++@@##@@++.@ %",
"%X@o..++++++..o@X%",
"%+O@@o......o@@O+%",
"%+O##@oO@@Oo@##O+%",
"%.+@#@@####@@#@+.%",
"% .++O@####@O++. %",
"%% ..++++++++.. %%",
"%% XX........XX %%",
"%%% XX XXXX XX %%%",
"%%%%.. oooo ..%%%%",
"%%%%%%......%%%%%%",
"%%%%%%%%%%%%%%%%%%"
};
