/* XPM */
static char *result[] = {
/* columns rows colors chars-per-pixel */
"42 42 5 1 ",
"  c #272120",
". c #362926",
"X c #59403B",
"o c #70514A",
"O c None",
/* pixels */
"OOOOOOOOOOOOOOOOOOOOOOOOOOOOOOOOOOOOOOOOOO",
"OOOOOOOOOOOOOOOOOOOOOOOOOOOOOOOOOOOOOOOOOO",
"OOOOOOOOOOOOOOOOOOOOOOOOOOOOOOOOOOOOOOOOOO",
"OOOOOOOOOOOOOOOOOOOOOOOOOOOOOOOOOOOOOOOOOO",
"OOOOOOOOOOOOOOOOOOOOOOOOOOOOOOOOOOOOOOOOOO",
"OOOOOOOOOOOOOOOOOOOOOOOOOOOOOOOOOOOOOOOOOO",
"OOOOOOOOOOOOOOOOOOOOOOOOOOOOOOOOOOOOOOOOOO",
"OOOOOOOOOOOOOOOOOOOOOOO     OOOOOOOOOOOOOO",
"OOOOOOOOOOOOOOOOOOOO   .XX.. OOOOOOOOOOOOO",
"OOOOOOOOOOOOOOOOO   .XXXXXX.. OOOOOOOOOOOO",
"OOOOOOOOOOOOOOO  .XXXXXXXXo.. OOOOOOOOOOOO",
"OOOOOOOOOOOOOO .XXXXXXXXoo.... OOOOOOOOOOO",
"OOOOOOOOOOOOOO XXXXXXXoo...... OOOOOOOOOOO",
"OOOOOOOOOOOOOO .oXXXoo......... OOOOOOOOOO",
"OOOOOOOOOOO   .X.ooo..XX....... OOOOOOOOOO",
"OOOOOOOOOO .XXXXo...XXXXX...... OOOOOOOOOO",
"OOOOOOOOO .XXXXXX...XXXXX....... OOOOOOOOO",
"OOOOOOOOO XXXXXXXo.XXXXXo....... OOOOOOOOO",
"OOOOOOOO .XXXXXXXX.XXXXX........ OOOOOOOOO",
"OOOOOOOO XXXXXXXXX.XXXXo......X. OOOOOOOOO",
"OOOOOOO .XXXXXXXXo.XXXo......X.. OOOOOOOOO",
"OOOOOOO XXXXXXXXXX..oo........X.. OOOOOOOO",
"OOOOOOO XXXXXXXXXo............... OOOOOOOO",
"OOOOOOO XXXXXXXXXo............... OOOOOOOO",
"OOOOOOO XXXXXXXXXo............... OOOOOOOO",
"OOOOOOO XoXXXXXXX................ OOOOOOOO",
"OOOOOOO XXXXXXXXo................ OOOOOOOO",
"OOOOOOO XXXoXXXo.X............... OOOOOOOO",
"OOOOOOOO oXXXXo.................. OOOOOOOO",
"OOOOOOOO .oXo..X................ OOOOOOOOO",
"OOOOOOOOO ....X.X.............  OOOOOOOOOO",
"OOOOOOOOOO  ..............    OOOOOOOOOOOO",
"OOOOOOOOOOOO              OOOOOOOOOOOOOOOO",
"OOOOOOOOOOOOOOOOOOOOOOOOOOOOOOOOOOOOOOOOOO",
"OOOOOOOOOOOOOOOOOOOOOOOOOOOOOOOOOOOOOOOOOO",
"OOOOOOOOOOOOOOOOOOOOOOOOOOOOOOOOOOOOOOOOOO",
"OOOOOOOOOOOOOOOOOOOOOOOOOOOOOOOOOOOOOOOOOO",
"OOOOOOOOOOOOOOOOOOOOOOOOOOOOOOOOOOOOOOOOOO",
"OOOOOOOOOOOOOOOOOOOOOOOOOOOOOOOOOOOOOOOOOO",
"OOOOOOOOOOOOOOOOOOOOOOOOOOOOOOOOOOOOOOOOOO",
"OOOOOOOOOOOOOOOOOOOOOOOOOOOOOOOOOOOOOOOOOO",
"OOOOOOOOOOOOOOOOOOOOOOOOOOOOOOOOOOOOOOOOOO"
};
