/* XPM */
static char *result[] = {
/* columns rows colors chars-per-pixel */
"18 18 13 1 ",
"  c #7B4218",
". c #A55A21",
"X c #C06828",
"o c #C26929",
"O c #C16A29",
"+ c #C66B29",
"@ c #DE7B39",
"# c #E48341",
"$ c #EF8C4A",
"% c #FFA563",
"& c #F4BC7A",
"* c #FFCE8C",
"= c None",
/* pixels */
"==== $$$$=========",
"====$****$========",
"====@****@========",
"====.@$$@.========",
"====.++++.========",
"====.++++.========",
"====.++++.========",
"==== .++. ========",
"====$$$$. ========",
"===%****$ ========",
"===@***%@=========",
"===.%$$@.=========",
"===.++++.=========",
"===.++++.=========",
"====.+++.=========",
"==== .+X.=========",
"==== .#o.=========",
"==== $&O.========="
};
