/* XPM */
static char *result[] = {
/* columns rows colors chars-per-pixel */
"17 17 44 1 ",
"  c black",
". c #010100",
"X c #020201",
"o c #030202",
"O c #030302",
"+ c #040302",
"@ c #050403",
"# c #060403",
"$ c #070504",
"% c #070705",
"& c #0A0806",
"* c #0B0907",
"= c #0C0907",
"- c #0C0B0A",
"; c #14100C",
": c #261F17",
"> c #271F17",
", c #211E1A",
"< c #282018",
"1 c #292118",
"2 c #282019",
"3 c #2F251D",
"4 c #322D25",
"5 c #413327",
"6 c #423A30",
"7 c #484030",
"8 c #564D41",
"9 c #605446",
"0 c #665D50",
"q c #6F6351",
"w c #706050",
"e c #97775C",
"r c #887A64",
"t c #8E7F69",
"y c #96866E",
"u c #988870",
"i c #BC9576",
"p c #C09878",
"a c #CFA37E",
"s c #D0A37E",
"d c #B8A890",
"f c #D4A781",
"g c #D8AA83",
"h c #E0B088",
/* pixels */
"hhhhhhhhhhhhhhhhh",
"hhhhh     &oghhhh",
"hhhh duuuyr4;ghhh",
"hhh duuuuuuu62hhh",
"hh ddduuuuuuu fhh",
"hh wdddduuuu9>1hh",
"h uwwwddddd<<<+sh",
" duuwww777<<<uqXh",
" duuuuw777<7uut@5",
" dduuuu777uuuuu8-",
" wddd<<7dduuuud0,",
" www7<uwwddddd<<%",
" www7duuwwww7<<<$",
" ww77dddu<w77<<:#",
"p w77ww77<w77<*O.",
"hp   ww7<<    =3e",
"hhppp     pppiahh"
};
