/* XPM */
static char *result[] = {
/* columns rows colors chars-per-pixel */
"18 18 8 1 ",
"  c #7B4218",
". c #A55A21",
"X c #C66B29",
"o c #DE7B39",
"O c #EF8C4A",
"+ c #FFA563",
"@ c #FFCE8C",
"# c None",
/* pixels */
"##################",
"#OOOO#####OOOO####",
"+@@@@O###O@@@@O###",
"o@@@+o###o@@@@o###",
".+OOo.###.oOOo.###",
"OXXXX.OOOOXXXO.OOO",
"@.XXX.@@@@.XXX@@@@",
"X.XXX.XXXX.XX.XXXX",
"# .XX.### XXXX ###",
"# ..X.### .XX. ###",
"# ..X.### .... ###",
"## .. #### .. ####",
"## ...#### .. ####",
"## .. #### .. ####",
"## .. #### .. ####",
"###  ######  #####",
"##################",
"##################"
};
