/* XPM */
static char *result[] = {
/* columns rows colors chars-per-pixel */
"42 42 25 1 ",
"  c black",
". c #070001",
"X c #21100E",
"o c #371613",
"O c #39231B",
"+ c #491A16",
"@ c #591110",
"# c #5F1513",
"$ c #581C18",
"% c #671A17",
"& c #6D1D1A",
"* c #54211C",
"= c #74221D",
"- c #492D24",
"; c #642B23",
": c #762421",
"> c #782624",
", c #6E3128",
"< c #613C2F",
"1 c #7B392F",
"2 c #704436",
"3 c #704536",
"4 c #83423B",
"5 c #835140",
"6 c #8E5E52",
/* pixels */
"-<<<3333225--255555555556&&&>&$$++ooXXXX. ",
"-<<35<33225-2255555555555>>&>&$$++ooXXX   ",
"-<333333225-2525555555555:>&>&$$++ooXXXX. ",
"-<<<3333225-2255555555562&$>>&$$++ooXXXX. ",
"-<333333222-2225555555554&&>>&$+++ooXXXX. ",
"-<<<3333<2--22525555551==>&>>&$$++ooXXXX. ",
"-<33<3<3--O-22255551=====:>>>&$+++ooXXXX. ",
"--<O-------O22521========:>>>&$+++ooXXXX. ",
"OOO--<--<2--2,&=====1551==:>>&$$++ooXXXX. ",
"O--<<<<<222-&&==155555551=:>>&$$++ooXXXX. ",
"--<<<333225-&,25555555555=:>>&$$++ooXXXX. ",
"-<<3<333225-2225625555551=:>>&$$++ooXXXX  ",
"-<<<3333225-2255551===15==:>>&$$++ooXXXX  ",
"O-<33333225-25255=====51=:>>>&$$++ooXXXX  ",
"-<<33333225-22555555555===:>>&$$++ooXXXX. ",
"-<333333225-22255555551===:>>&$$++ooXXXX. ",
"-<<33333225-2252555551=====:>&$$++ooXXXX. ",
"-<333333225-2525555=======:>>&$$++ooXXXX. ",
"-<<33333225-2252555==11====:>&$$++ooXXXX. ",
"-<333333225-222555555551===:>&$$++ooXXXX. ",
"-<<33333225-225255555555===:>&$$++ooXXXX. ",
"-<33335<225-222525555555===:>&$$++ooXXXX. ",
"-<<33333225*222252555555==:>>&$$++ooXXXX  ",
"-<<<3333,&=#<222225555551=:>>&$$++ooXXXX. ",
"-<3333,&&&=#-<22255555551=:>>&$$++ooXXXX. ",
"-<<<&&&&,25*225255555555==:>>&$$++ooXXXX. ",
"-<<3<333225-225555555555==:>>&$$++ooXXXX. ",
"-<<<3333225-222555555555==:>>&$$++ooXXXX. ",
"-<<33333225-225555555551==:>>&$$++ooXXXX  ",
"-<<<3333225-25255551======:>>&$$++ooXXXX. ",
"-<<<3333225-2251=========:>>>&$$++ooXXXX  ",
"-<<33333225-255&=====1551:=>>&$$+++ooX X. ",
"---<3333225-252555522551==:>>&$$++oXXoX   ",
"-<<33333225-225555551=====:>&&$++o   X X  ",
"-<<33333225-2525551==1==&=:>&$+oo         ",
"-<333333225-225221====&&$:>&&$$$++ooX     ",
"-<<33333222+<225<;;&&2221=:>&&$$+++ooX    ",
"*<33333322-@+<<<222222552=:>>&$$++ooXX  . ",
"#;<33,&&&&=#@-22555555555=:>>&$$++ooXX X  ",
"#%&&&&,32,=#*255255555555=:>>&$$++ooXXX   ",
"#;3,&&&&&&=*2525555555555=:>>&$$++ooXXX . ",
"#<3<3333225-2255555555555=:>>&$$++ooXX X  "
};
