/* XPM */
static char *result[] = {
/* columns rows colors chars-per-pixel */
"42 42 14 1 ",
"  c #272120",
". c #2B2524",
"X c #2D2726",
"o c #2F2928",
"O c #322A29",
"+ c #342C2A",
"@ c #39302F",
"# c #423735",
"$ c #4B403E",
"% c #4F4543",
"& c #534947",
"* c #7B7372",
"= c #9E9492",
"- c None",
/* pixels */
"------------------------------------------",
"------------------------------------------",
"------------------------------------------",
"------------------------------------------",
"------------------------------------------",
"------------------------------------------",
"------------------------------------------",
"---------                        ---------",
"-------- #*@@@@@@@@@@@@@oooo@@@*# --------",
"-------- O#=@@@@@@@@@@@@@o@@@@=#o --------",
"-------- @@#*@@@@@@@@@@@@@@@@*#.o --------",
"-------- @@@O*====***%%$$####.ooo --------",
"-------- @@@O=$##############oooo --------",
"-------- @@@@=############&##o.oo --------",
"-------- @@@@=###############oooo --------",
"-------- @@@@*####&##########oooo --------",
"-------- @@@O*###############oooo --------",
"-------- @@@O%###########&###oooo --------",
"-------- o@@O%##############$ooo. --------",
"-------- o@@O$##############$ooo. --------",
"-------- @@@@$##############$.ooo --------",
"-------- @@@@$##############%.ooo --------",
"-------- @O@@##########&####%.ooo --------",
"-------- @@@@###&##########$*.ooo --------",
"-------- @@@O$########$$$%%*=.ooo --------",
"-------- @@@O*#.oooooooooo.#&oooo --------",
"-------- @@@=#oooooooooooooo#&oXo --------",
"-------- @@=#ooooooooooooooo.#&.o --------",
"-------- @=#.ooooooooooo.ooooo#&. --------",
"-------- *#.oooooooooo..o..oooo#& --------",
"-------- +......................+ --------",
"---------                        ---------",
"------------------------------------------",
"------------------------------------------",
"------------------------------------------",
"------------------------------------------",
"------------------------------------------",
"------------------------------------------",
"------------------------------------------",
"------------------------------------------",
"------------------------------------------",
"------------------------------------------"
};
