/* XPM */
static char *result[] = {
/* columns rows colors chars-per-pixel */
"42 42 25 1 ",
"  c black",
". c #070001",
"X c #21100E",
"o c #371613",
"O c #39231B",
"+ c #491A16",
"@ c #591110",
"# c #5F1513",
"$ c #581C18",
"% c #671A17",
"& c #6D1D1A",
"* c #54211C",
"= c #74221D",
"- c #492D24",
"; c #642B23",
": c #762421",
"> c #782624",
", c #6E3128",
"< c #613C2F",
"1 c #7B392F",
"2 c #704436",
"3 c #704536",
"4 c #83423B",
"5 c #835140",
"6 c #8E5E52",
/* pixels */
"  X XXoo++$$&>>:=5555555555522-5223333<3<#",
" . XXXoo++$$&>>:=5555555555252*=&&&&&&,3;#",
"   XXXoo++$$&>>:=555555552552*#=,23,&&&&%#",
"  X XXoo++$$&>>:=55555555522-@#=&&&&,33<;#",
" .  XXoo++$$&>>:=255222222<<<+@-22333333<*",
"    Xoo+++$$&&>:=1222&&;;<522<+22233333<<-",
"     Xoo++$$$&&>:$&&====122522-522333333<-",
"         oo+$&>:=&==1==1555252-52233333<<-",
"  X X   o++$&&>:=====155555522-52233333<<-",
"   XoXXo++$$&>>:==155225555252-5223333<---",
" .X Xoo+++$$&>>=:1551=====&552-52233333<<-",
"  XXXXoo++$$&>>>:=========1522-5223333<<<-",
" .XXXXoo++$$&>>:======15555252-5223333<<<-",
"  XXXXoo++$$&>>:==155555555522-52233333<<-",
" .XXXXoo++$$&>>:==555555555222-5223333<<<-",
" .XXXXoo++$$&>>:==555555555522-522333<3<<-",
" .XXXXoo++$$&>>:==555555552522*52,&&&&<<<-",
" .XXXXoo++$$&>>:=15555555222<-#=&&&,3333<-",
" .XXXXoo++$$&>>:=155555522222<#=&,3333<<<-",
"  XXXXoo++$$&>>:==555555252222*52233333<<-",
" .XXXXoo++$$&>:===555555525222-522<53333<-",
" .XXXXoo++$$&>:===555555552522-52233333<<-",
" .XXXXoo++$$&>:===155555555222-522333333<-",
" .XXXXoo++$$&>:====11==5552522-52233333<<-",
" .XXXXoo++$$&>>:=======5555252-522333333<-",
" .XXXXoo++$$&>:=====1555552522-52233333<<-",
" .XXXXoo++$$&>>:===15555555222-522333333<-",
" .XXXXoo++$$&>>:===55555555522-52233333<<-",
"  XXXXoo++$$&>>>:=15=====55252-52233333<-O",
"  XXXXoo++$$&>>:==51===1555522-5223333<<<-",
"  XXXXoo++$$&>>:=1555555265222-522333<3<<-",
" .XXXXoo++$$&>>:=55555555552,&-522333<<<--",
" .XXXXoo++$$&>>:=155555551==&&-222<<<<<--O",
" .XXXXoo++$$&>>:==1551=====&,2--2<--<--OOO",
" .XXXXoo+++$&>>>:========12522O-------O<--",
" .XXXXoo+++$&>>>:=====15555222-O--3<3<33<-",
" .XXXXoo++$$&>>&>==15555552522--2<3333<<<-",
" .XXXXoo+++$&>>&&4555555555222-222333333<-",
" .XXXXoo++$$&>>$&2655555555522-5223333<<<-",
" .XXXXoo++$$&>&>:5555555555252-522333333<-",
"   XXXoo++$$&>&>>5555555555522-52233<53<<-",
" .XXXXoo++$$&>&&&655555555552--5223333<<<-"
};
