/* XPM */
static char *result[] = {
/* columns rows colors chars-per-pixel */
"42 42 23 1 ",
"  c black",
". c #070001",
"X c #21100E",
"o c #371613",
"O c #491A16",
"+ c #5F1513",
"@ c #581C18",
"# c #671A17",
"$ c #6D1D1A",
"% c #54211C",
"& c #74221D",
"* c #492D24",
"= c #642B23",
"- c #762421",
"; c #782624",
": c #6E3128",
"> c #613C2F",
", c #7B392F",
"< c #704436",
"1 c #704536",
"2 c #835140",
"3 c #895849",
"4 c #8E5E52",
/* pixels */
"  . ..... .   . . .. ..........  .... .. .",
" XXX XXX X   X XXX XXXXXXXXXXXXXXXXXXXXXXX",
" XXXXXXXXX    XXXXXXXXXXXXXXXXXXXXXXXXXXXX",
"  XXXXXoXoX   XXXXXXXXXXXXXXXXXXXXXXXXXXXX",
" XXXXXXXoX   XoXXXXXXXXXXXXXXXXXXXXXXXXXXX",
"  X XXXXXoX  ooooooooooooooooooooooooooooo",
" X XXXXXXoX  oOooooooooooooooooooooooooooo",
"  X XXoXXooo oOOOOOOOOOOOOOOOOOOOOOOOOOOOO",
"   X XXoXooO OOOOOOOOOOOOOOOOOOOOOOOOOOOOO",
"       XoOOo oOOOOOO@OOOOOOOOO@@@@@@@@@@OO",
"           X oO@@@@@@@@@@@@@@@@@@@@@@@@@@@",
"  X X XXooOoOO@@$$$$$$$$$$$$$$$$$$$$$$$$$$",
" X X XoXoOOOO@O$;;;;;;;;;;;;;;;;;;;;;;;;;;",
"  XXXXXooOOO@@$#--;;;;;;;;----;;;;;;;;;;;;",
" X XXXXooOOO@$;;#&--------&&&&----------;$",
" XXXXXXooOO@@$$;-&&&&&&&&&&&&&&&&&&&&&&&-;",
" X XXXXooOO@@$$;-&&&&&&&&&&&&&&,22,&&&&223",
" XXXXXXooOO@@$$;-&&$&&&&&&&,&&&,2222,&&22,",
" XXXXXXoOOO@@$$;-&&&$&&&&&&2,&&&22222&&,2&",
"  XXXXXoOOO@@$;;-&&&&$&&&&&22,&&22222,&&2&",
"  XXXXXooOO@@$&;-&&&&&#&&,2222&,222222,&22",
"  XXXXXooOO@@$$;-&&&,&&#&&2222&&,222222&22",
" XXXXXXooOO@@$;;-&&&,,&$#$2222,&&222222222",
" XXXXXXooOO@@$;;-&&&&,,&$=<2<2<,&222222<22",
" XXXXXXoOOO@@$;;-&&&&&,,&$=<<<2$&,22222442",
" XXXXXXooOO@@$;;-&&,&&&,,&$=<2<$&$2<222222",
" XXXXXXoOOO@@$;;-&&2,&&&&&&$=<<$$&:2<2<2<2",
" XXXXXXooOOO@$;;-&&22,&&&&&&$=<$$$$<2<2<<<",
" XXXXXXooOO@@$;;-&&,22,&&&&&&$=#=$$<<<<<<<",
" XXXXXXooOOO@$;-&&&&222&&,,&&&&+***%+++%**",
"  XXXXXooOOO@$;-&&&&,22,&2222:$$*<22,&&222",
"   XXXXooOO@@$;-&&&&&2222222<2<<**><<:$$<<",
"  XXXXXoOOO@@$;-&&&&&,2222222<<<*2*><<:$$<",
" XXXXXXooOO@@$;;-&&&&&,22222<2<<*2>*>11:$$",
" XXXXXXooOO@@$;;-&&,&&&,222<2<<<*2<>*>11:$",
" XXXXXXooOO@@$;;-&&2&&&&&,22<<<<*2<<>*>>1:",
" XXXXXXooO@@@$;;-&&22,&&&&,<2<<*+2<<<>*>>>",
" XXXXXXooOO@@$;;-&&2222,&&$2<<<*+&<<<1>*>>",
"  XXXXXooOO@@$;;-&&,2222222<<<*%+&<<<1>>*>",
" XXXXXXooOO@@$;;-&&&,2222222<<<*+&$<<11>>*",
" XXXXXXooOO@@$;;-&&&&&,22,&&<2<<%&$$<111>>",
" XXXXXXooOO@@$;;-&,,&&&&22,&&<<<*2:$$1111>"
};
